<svg version="1" xmlns="http://www.w3.org/2000/svg" width="21.333" height="21.333" viewBox="0 0 16.000000 16.000000"><path d="M7.824-.007l-.066.003-.09.003-.162.008-.044.003-.04.003-.035.003a5.003 5.003 0 0 0-.13.01L7.226.03a.45.45 0 0 0-.028.003l-.025.003a.421.421 0 0 0-.05.005l-.026.003a.426.426 0 0 1-.023.003.406.406 0 0 1-.05.006l-.022.002-.04.005a3.079 3.079 0 0 0-.079.011l-.022.003a.469.469 0 0 0-.022.003L6.812.08l-.027.004-.037.006c-.006 0-.025.004-.116.02l-.017.002L6.57.12l-.029.006-.03.005a.859.859 0 0 0-.07.014 5.355 5.355 0 0 0-.143.03c-.007 0-.015.002-.019.003a.587.587 0 0 1-.023.006l-.017.003a1.446 1.446 0 0 0-.081.019l-.035.008a13.836 13.836 0 0 0-.335.09L5.76.31a4.819 4.819 0 0 0-.16.05l-.03.007-.007.003-.069.023a4.485 4.485 0 0 0-.266.092l-.05.02a8.737 8.737 0 0 0-.319.127l-.008.003a.902.902 0 0 0-.077.034 4.44 4.44 0 0 0-.082.037l-.05.023-.057.027c-.043.02-.25.122-.285.141l-.066.035A.873.873 0 0 0 4.17.97a2.116 2.116 0 0 0-.09.05 8.127 8.127 0 0 0-1.094.742l-.035.028a2.07 2.07 0 0 0-.03.025l-.016.013a1.992 1.992 0 0 0-.052.043 4.911 4.911 0 0 0-.118.102.281.281 0 0 1-.027.023l-.011.01a3.51 3.51 0 0 0-.088.079 8.61 8.61 0 0 0-.49.489.173.173 0 0 0-.024.026l-.028.03-.024.026-.033.038-.03.034a2.366 2.366 0 0 0-.072.083l-.03.034-.032.04a13.24 13.24 0 0 0-.08.097l-.018.024a.53.53 0 0 1-.039.048 3.643 3.643 0 0 0-.14.184l-.042.057A7.923 7.923 0 0 0 .782 4.54l-.025.054a5.381 5.381 0 0 0-.15.34 3.834 3.834 0 0 0-.074.185 1.485 1.485 0 0 0-.033.088 6.986 6.986 0 0 0-.156.46 7.67 7.67 0 0 0-.072.253l-.015.057a4.815 4.815 0 0 1-.02.084c-.01.034-.019.072-.022.084l-.026.112-.01.047a7.52 7.52 0 0 0-.038.19l-.007.035a10.899 10.899 0 0 0-.047.283l-.004.029a.638.638 0 0 1-.008.06 1.532 1.532 0 0 1-.01.073l-.003.023-.003.02-.002.024a.534.534 0 0 0-.006.047.531.531 0 0 0-.003.026l-.002.023-.003.027-.003.029a.529.529 0 0 0-.003.029.529.529 0 0 0-.008.09l-.003.033a4.138 4.138 0 0 0-.017.26l-.002.057C0 7.795 0 8.18.007 8.326l.003.06.002.053.003.048.003.047.003.037.005.076.003.033.005.061.006.06a.544.544 0 0 0 .006.053.413.413 0 0 0 .005.051l.003.024.003.022a2.545 2.545 0 0 0 .016.128l.005.04a1.502 1.502 0 0 1 .01.07l.007.046.003.017.022.134a.506.506 0 0 0 .009.047l.002.015.003.014a2.234 2.234 0 0 0 .028.14l.018.087a5.088 5.088 0 0 0 .055.239l.01.037.013.054.015.058a6.803 6.803 0 0 0 .084.291l.003.007.018.058c.037.115.095.284.117.34l.019.05a7.94 7.94 0 0 0 .107.269l.006.013.006.016.018.042a1.839 1.839 0 0 0 .036.082l.02.045.042.09.019.041a7.932 7.932 0 0 0 .255.492l.006.012a6.34 6.34 0 0 0 .238.396l.005.007.006.007a7.068 7.068 0 0 0 .42.59l.055.07a7.06 7.06 0 0 0 .155.188c.002.002.01.01.017.02a.99.99 0 0 0 .021.025l.014.015c.035.04.104.119.135.151l.034.038a8.744 8.744 0 0 0 .659.635l.033.029a1.939 1.939 0 0 0 .047.04c.157.132.365.292.551.421l.057.04c.003.003.182.122.19.126l.06.038a8.231 8.231 0 0 0 .395.235l.036.02.144.078a15.802 15.802 0 0 0 .311.154 6.3 6.3 0 0 0 .239.106l.063.028a2.459 2.459 0 0 0 .1.041 5.903 5.903 0 0 0 .223.086 7.902 7.902 0 0 0 .395.134l.069.02a6.497 6.497 0 0 0 .503.134l.052.011.05.011.019.004a4.2 4.2 0 0 0 .183.037l.053.01a2.185 2.185 0 0 0 .12.02l.07.012a.1.1 0 0 1 .014.003l.017.002a1.239 1.239 0 0 1 .08.012l.017.003a1.157 1.157 0 0 0 .082.01c.015.003.1.013.113.014l.022.003.05.005.024.003.058.006.03.003.06.005c.014 0 .03.002.035.003l.034.003.077.005.049.003.045.003.054.002.058.003c.14.007.542.007.67 0l.056-.003.052-.002.05-.003a2.124 2.124 0 0 0 .123-.008l.034-.003.033-.003.034-.003a1.374 1.374 0 0 0 .085-.008l.028-.003c.01 0 .022-.002.027-.003l.025-.002.05-.006.02-.003.024-.002.035-.004a1.07 1.07 0 0 0 .053-.007l.021-.003a1.444 1.444 0 0 0 .077-.011 2.208 2.208 0 0 0 .11-.017 12.707 12.707 0 0 0 .176-.03c.006 0 .029-.005.062-.011l.048-.01.05-.01c.034-.006.187-.04.237-.052l.035-.008.066-.017.065-.016.09-.024.088-.025.081-.023a.735.735 0 0 0 .028-.008l.047-.014c.057-.017.214-.069.29-.095l.055-.02a6.295 6.295 0 0 0 .134-.05l.062-.023c.026-.01.05-.02.054-.02l.03-.013.03-.012a6.774 6.774 0 0 0 .443-.195l.286-.143a17.09 17.09 0 0 0 .253-.14l.008-.005a.882.882 0 0 0 .023-.013l.089-.052a1.01 1.01 0 0 0 .073-.046c.002 0 .069-.04.11-.067l.038-.024a12.113 12.113 0 0 0 .39-.268 1.712 1.712 0 0 0 .104-.077c.002 0 .004 0 .004-.002l.029-.023a.485.485 0 0 0 .029-.022l.031-.025.035-.026a9.453 9.453 0 0 1 .174-.142l.016-.014a7.505 7.505 0 0 0 .235-.204l.041-.038a1.087 1.087 0 0 1 .06-.054l.052-.05a9.623 9.623 0 0 0 .388-.397l.017-.019a4.29 4.29 0 0 0 .07-.077l.026-.03a9.869 9.869 0 0 0 .078-.091l.034-.039c.062-.073.232-.288.292-.37l.03-.041.037-.051.014-.02a4.13 4.13 0 0 0 .066-.093 9.425 9.425 0 0 0 .396-.63l.006-.011a1.177 1.177 0 0 0 .346-.69 7.015 7.015 0 0 0 .18-.44 8.637 8.637 0 0 0 .196-.599l.007-.027.014-.051a4.06 4.06 0 0 0 .053-.203l.01-.045.013-.05a5.147 5.147 0 0 0 .039-.179l.011-.055.006-.031.003-.014.006-.03.008-.045.006-.03.016-.094.018-.113.004-.025.003-.015a.38.38 0 0 0 .003-.02l.008-.06a4.336 4.336 0 0 0 .011-.083l.003-.023.004-.035.004-.033.003-.025.003-.025.002-.026.003-.023.006-.062.002-.027.003-.028.003-.033.003-.034c0-.014.002-.029.003-.033l.002-.036.003-.041.003-.046A7.17 7.17 0 0 0 16 8.33a9.976 9.976 0 0 0 0-.668l-.003-.058-.002-.055-.003-.051a2.358 2.358 0 0 0-.008-.117l-.003-.036-.003-.035-.006-.059-.002-.03a1.983 1.983 0 0 0-.006-.059l-.003-.024-.002-.025-.003-.025-.003-.025a5.59 5.59 0 0 0-.014-.11l-.002-.025a.205.205 0 0 0-.003-.02.195.195 0 0 1-.003-.018l-.003-.02-.002-.02a.655.655 0 0 0-.003-.02l-.003-.015a.342.342 0 0 0-.003-.021l-.003-.02a1.237 1.237 0 0 0-.076-.42l-.004-.02a.16.16 0 0 0-.004-.017l-.004-.02-.007-.031a.405.405 0 0 1-.004-.018l-.01-.043a10.005 10.005 0 0 0-.14-.526v-.007a8.383 8.383 0 0 0-.324-.88c-.003-.004-.018-.038-.035-.076a4.195 4.195 0 0 0-.075-.163 16.636 16.636 0 0 0-.182-.356l-.019-.036a.643.643 0 0 0-.028-.051 4.963 4.963 0 0 0-.122-.211l-.01-.018a.066.066 0 0 1-.008-.013l-.008-.013a1.274 1.274 0 0 1-.06-.096 13.414 13.414 0 0 0-.291-.434 11.504 11.504 0 0 0-.185-.247l-.04-.051a7.939 7.939 0 0 0-.166-.202l-.015-.018a5.478 5.478 0 0 0-.088-.102l-.02-.022s-.01-.013-.023-.026l-.053-.058a7.4 7.4 0 0 0-.492-.494l-.02-.02a3.077 3.077 0 0 0-.068-.06 9.155 9.155 0 0 0-.125-.109l-.05-.043a1.047 1.047 0 0 0-.043-.036 8.32 8.32 0 0 0-1.013-.716.003.003 0 0 1-.003-.003c0-.002-.001-.003-.003-.003a8.878 8.878 0 0 0-.936-.476l-.038-.016a5.752 5.752 0 0 0-.302-.121 7.453 7.453 0 0 0-.32-.113l-.019-.006-.052-.017-.076-.023a1.808 1.808 0 0 0-.065-.02A2.958 2.958 0 0 0 10.21.3l-.043-.012a3.552 3.552 0 0 0-.128-.035 6.188 6.188 0 0 0-.222-.055l-.07-.016L9.689.17a.493.493 0 0 1-.054-.011L9.624.156 9.61.153a5.056 5.056 0 0 0-.389-.069.075.075 0 0 1-.019-.003L9.167.076 9.13.07a2.032 2.032 0 0 0-.124-.017A.381.381 0 0 1 8.96.05L8.937.046 8.886.04 8.839.035l-.03-.003-.058-.005A.72.72 0 0 0 8.69.02L8.657.018 8.62.015 8.585.013 8.549.01a3.994 3.994 0 0 0-.152-.008l-.065-.003a27.874 27.874 0 0 0-.508-.006z"/></svg>