<?xml version="1.0" standalone="no"?>
<!DOCTYPE svg PUBLIC "-//W3C//DTD SVG 20010904//EN"
 "http://www.w3.org/TR/2001/REC-SVG-20010904/DTD/svg10.dtd">
<svg version="1.0" xmlns="http://www.w3.org/2000/svg"
 width="16.000000pt" height="16.000000pt" viewBox="0 0 16.000000 16.000000"
 preserveAspectRatio="xMidYMid meet">
<metadata>
Created by potrace 1.11, written by Peter Selinger 2001-2013
</metadata>
<g transform="translate(0.000000,16.000000) scale(0.000276,-0.000276)"
fill="#000000" stroke="none">
<path d="M28348 57995 c-2 -2 -109 -6 -238 -9 -129 -4 -278 -9 -330 -11 -163
-7 -474 -24 -585 -30 -44 -3 -116 -8 -160 -10 -44 -3 -109 -8 -145 -11 -36 -3
-92 -7 -125 -10 -86 -5 -300 -23 -470 -39 -16 -2 -68 -6 -115 -10 -47 -4 -92
-8 -100 -10 -8 -2 -49 -6 -90 -10 -41 -4 -82 -8 -90 -10 -8 -2 -50 -6 -92 -9
-42 -4 -85 -8 -95 -10 -10 -2 -47 -7 -83 -11 -36 -3 -78 -8 -95 -10 -16 -3
-55 -7 -85 -10 -30 -4 -66 -8 -80 -10 -62 -9 -108 -15 -145 -19 -86 -11 -238
-32 -285 -40 -14 -3 -50 -7 -81 -11 -31 -3 -67 -8 -80 -10 -12 -3 -57 -9 -99
-15 -42 -6 -85 -12 -96 -14 -19 -4 -87 -14 -134 -21 -21 -3 -93 -15 -422 -70
-16 -3 -43 -7 -60 -10 -39 -7 -135 -23 -163 -29 -11 -2 -58 -11 -105 -20 -47
-9 -96 -18 -110 -21 -13 -2 -42 -7 -64 -11 -22 -3 -43 -7 -46 -9 -3 -2 -25 -6
-50 -10 -25 -4 -47 -8 -50 -10 -3 -2 -22 -6 -43 -9 -33 -5 -398 -79 -452 -92
-11 -3 -40 -9 -65 -14 -25 -5 -56 -12 -70 -15 -33 -8 -60 -14 -85 -19 -11 -2
-38 -9 -60 -14 -22 -6 -51 -13 -65 -16 -35 -6 -108 -23 -230 -52 -58 -14 -115
-28 -127 -30 -24 -5 -491 -123 -588 -149 -33 -9 -67 -18 -77 -20 -27 -6 -457
-125 -548 -152 -47 -13 -89 -26 -95 -27 -5 -1 -26 -7 -45 -13 -19 -6 -75 -23
-125 -38 -159 -47 -318 -96 -413 -127 -51 -16 -98 -31 -105 -32 -7 -2 -19 -5
-27 -9 -8 -3 -121 -40 -250 -82 -268 -87 -571 -191 -615 -210 -16 -7 -41 -16
-55 -20 -14 -3 -34 -10 -45 -15 -11 -5 -67 -25 -125 -45 -58 -20 -114 -40
-125 -45 -11 -6 -92 -36 -180 -69 -268 -99 -876 -343 -1155 -464 -14 -5 -27
-11 -30 -12 -8 -3 -81 -34 -115 -50 -16 -7 -91 -40 -165 -73 -137 -60 -170
-75 -295 -132 -38 -18 -122 -56 -185 -85 -63 -29 -155 -71 -205 -95 -154 -72
-904 -445 -1030 -513 -66 -35 -174 -92 -240 -127 -66 -34 -124 -66 -130 -70
-5 -4 -55 -31 -110 -60 -55 -30 -113 -62 -130 -72 -16 -10 -37 -21 -45 -25 -8
-4 -76 -41 -150 -83 -1016 -575 -1976 -1194 -2905 -1874 -307 -225 -867 -655
-1060 -815 -11 -9 -67 -54 -125 -101 -58 -47 -107 -87 -110 -90 -3 -3 -30 -25
-60 -50 -68 -56 -99 -82 -114 -95 -6 -6 -38 -33 -71 -60 -106 -88 -340 -288
-350 -299 -5 -6 -41 -38 -80 -70 -38 -33 -82 -71 -97 -85 -15 -14 -33 -31 -40
-36 -16 -13 -198 -175 -253 -227 -22 -20 -51 -46 -64 -57 -27 -23 -226 -208
-350 -326 -465 -439 -1017 -998 -1427 -1444 -33 -35 -72 -78 -88 -95 -15 -16
-60 -66 -100 -110 -39 -44 -78 -87 -86 -96 -8 -9 -62 -70 -120 -135 -58 -66
-107 -122 -110 -125 -3 -3 -62 -70 -130 -150 -69 -80 -127 -147 -131 -150 -3
-3 -50 -59 -105 -125 -54 -66 -109 -131 -120 -145 -20 -23 -259 -315 -287
-350 -7 -8 -37 -47 -67 -85 -30 -39 -57 -72 -60 -75 -8 -8 -52 -63 -80 -100
-14 -19 -36 -48 -50 -64 -40 -49 -80 -101 -271 -354 -98 -130 -182 -241 -187
-247 -4 -5 -73 -100 -153 -210 -493 -677 -990 -1428 -1400 -2115 -224 -374
-269 -450 -269 -454 0 -3 -21 -40 -46 -83 -51 -85 -64 -108 -114 -198 -18 -33
-52 -94 -75 -135 -23 -41 -64 -115 -90 -165 -26 -49 -51 -94 -55 -100 -7 -10
-78 -143 -202 -380 -75 -142 -410 -812 -444 -885 -11 -25 -52 -112 -91 -195
-103 -217 -135 -288 -230 -500 -92 -205 -293 -673 -293 -681 0 -3 -9 -26 -21
-50 -11 -25 -54 -130 -95 -232 -41 -103 -79 -196 -84 -207 -5 -11 -26 -63 -45
-115 -19 -52 -40 -104 -45 -115 -5 -11 -32 -83 -60 -160 -28 -77 -55 -149 -60
-160 -13 -28 -160 -439 -205 -570 -20 -60 -41 -119 -45 -130 -24 -55 -198
-595 -314 -970 -70 -227 -201 -687 -260 -915 -26 -96 -50 -188 -56 -205 -5
-16 -11 -41 -14 -55 -3 -14 -30 -126 -61 -250 -31 -124 -64 -261 -75 -305 -27
-112 -84 -357 -94 -406 -3 -13 -19 -89 -36 -169 -57 -265 -109 -523 -140 -690
-10 -54 -18 -98 -24 -125 -26 -131 -130 -751 -161 -960 -3 -22 -7 -51 -10 -65
-2 -14 -9 -61 -15 -105 -6 -44 -13 -91 -16 -105 -2 -14 -9 -63 -14 -110 -11
-85 -18 -135 -25 -178 -2 -13 -7 -53 -11 -90 -3 -37 -8 -74 -9 -82 -2 -9 -6
-43 -10 -75 -4 -33 -8 -71 -10 -85 -2 -14 -7 -52 -10 -85 -3 -33 -8 -71 -10
-85 -2 -14 -7 -56 -10 -93 -4 -37 -8 -76 -10 -86 -2 -10 -6 -54 -10 -97 -4
-43 -8 -90 -10 -104 -2 -14 -7 -61 -10 -105 -4 -44 -8 -91 -10 -105 -2 -14 -7
-61 -10 -105 -3 -44 -8 -96 -10 -115 -2 -19 -7 -73 -10 -120 -3 -47 -8 -105
-10 -130 -6 -59 -15 -192 -30 -440 -11 -183 -14 -236 -20 -375 -4 -77 -8 -169
-10 -205 -26 -483 -26 -1877 0 -2405 2 -38 6 -137 10 -220 3 -82 8 -168 10
-190 1 -22 6 -101 10 -175 3 -74 8 -151 10 -170 2 -19 6 -80 10 -135 10 -153
15 -226 20 -275 2 -25 7 -79 10 -120 6 -77 10 -124 20 -220 11 -108 13 -136
20 -220 4 -47 9 -94 11 -105 2 -11 6 -49 9 -85 3 -36 7 -78 10 -95 2 -16 7
-57 10 -90 4 -33 8 -71 10 -85 2 -14 6 -50 10 -80 5 -49 13 -115 30 -245 3
-22 8 -60 11 -85 3 -25 7 -56 9 -70 2 -14 6 -43 9 -65 3 -22 12 -87 20 -145 9
-58 18 -125 21 -150 3 -25 10 -70 15 -100 10 -64 19 -121 26 -169 2 -19 6 -46
9 -60 7 -42 75 -454 81 -486 2 -16 9 -56 15 -87 5 -32 12 -70 15 -85 2 -16 7
-39 10 -53 3 -14 8 -36 10 -50 33 -188 55 -302 74 -385 5 -22 17 -78 26 -125
22 -118 19 -102 65 -314 22 -105 42 -198 44 -206 32 -148 111 -481 157 -660
16 -63 31 -124 34 -135 2 -11 24 -99 50 -195 25 -96 49 -191 54 -210 24 -102
149 -539 242 -845 33 -110 61 -204 63 -210 1 -5 5 -17 8 -25 3 -8 34 -103 68
-210 132 -417 342 -1029 424 -1235 13 -33 42 -112 66 -175 44 -122 243 -631
259 -665 5 -11 32 -76 60 -145 28 -69 60 -144 71 -167 10 -24 19 -45 19 -48 0
-2 11 -28 24 -57 13 -29 42 -98 66 -153 23 -55 55 -128 71 -163 16 -35 29 -66
29 -68 0 -3 13 -33 29 -67 16 -34 49 -107 74 -162 65 -145 94 -207 149 -325
27 -58 59 -125 70 -150 42 -91 439 -889 503 -1010 124 -234 178 -335 258 -480
122 -223 138 -252 164 -292 12 -21 23 -40 23 -42 0 -16 388 -675 545 -926 47
-74 88 -142 92 -150 4 -8 55 -90 115 -183 59 -93 108 -172 108 -176 0 -4 9
-16 20 -26 11 -10 20 -22 20 -27 0 -8 437 -666 450 -678 3 -3 19 -25 35 -50
166 -248 865 -1207 904 -1240 3 -3 26 -32 51 -65 25 -33 61 -80 81 -105 20
-25 109 -137 199 -250 138 -172 218 -271 338 -415 146 -175 214 -256 224 -267
7 -7 35 -40 63 -73 27 -33 62 -73 77 -90 14 -16 36 -41 48 -55 128 -148 380
-432 489 -549 53 -57 109 -118 125 -135 389 -422 1021 -1060 1397 -1410 41
-38 106 -99 144 -135 212 -199 551 -503 845 -756 63 -55 117 -102 120 -105 4
-4 63 -53 133 -110 10 -8 28 -23 40 -33 568 -482 1322 -1060 1995 -1529 108
-76 202 -141 207 -146 10 -8 658 -439 688 -457 8 -5 105 -67 214 -136 193
-123 498 -311 618 -382 343 -203 672 -392 815 -470 30 -17 89 -49 130 -72 129
-73 261 -143 524 -282 136 -72 1001 -503 1009 -503 3 0 56 -24 118 -54 275
-130 557 -257 864 -387 116 -50 219 -94 230 -99 11 -5 88 -37 170 -70 83 -33
170 -69 195 -80 65 -28 422 -168 510 -200 159 -58 276 -102 295 -110 97 -43
843 -299 1210 -415 99 -31 187 -59 195 -62 8 -3 20 -7 25 -8 6 -2 118 -35 250
-74 411 -123 468 -139 765 -220 340 -91 937 -241 1060 -265 14 -2 97 -21 185
-41 88 -20 171 -39 185 -41 14 -2 43 -9 65 -14 66 -16 566 -117 665 -134 14
-2 99 -18 190 -35 91 -17 179 -33 195 -35 17 -3 125 -21 240 -40 116 -19 230
-38 255 -41 24 -4 47 -8 50 -10 3 -1 30 -6 61 -9 31 -4 67 -9 80 -11 13 -3 44
-8 69 -11 25 -3 56 -7 69 -9 13 -2 45 -7 70 -11 25 -4 55 -8 65 -10 11 -2 74
-11 140 -19 67 -9 137 -18 156 -20 57 -8 361 -45 410 -51 25 -2 61 -7 80 -9
65 -8 115 -14 183 -20 37 -4 76 -8 85 -9 14 -3 123 -13 212 -21 8 -1 56 -5
105 -10 124 -12 119 -11 220 -19 50 -4 106 -9 125 -11 19 -3 76 -7 125 -11
108 -7 173 -11 280 -18 44 -4 123 -8 175 -11 52 -3 127 -8 165 -10 39 -3 126
-8 195 -10 69 -3 163 -8 210 -10 505 -26 1965 -26 2430 0 36 2 126 6 200 10
74 3 160 8 190 10 30 2 111 6 180 10 69 4 143 9 165 11 22 2 83 6 136 8 53 3
119 8 145 10 27 3 83 7 124 11 41 3 95 8 120 10 25 3 79 7 120 11 41 3 91 7
110 9 127 12 169 16 200 20 19 2 64 7 100 10 36 3 81 8 100 10 19 2 60 7 90
10 83 8 152 16 180 20 14 2 48 7 75 10 28 3 66 7 85 10 19 2 76 9 125 15 112
13 176 21 195 25 9 2 43 6 75 10 33 4 71 9 85 11 14 2 102 15 195 29 199 28
241 35 275 41 14 2 70 11 125 20 121 19 550 92 585 99 14 3 36 7 50 9 21 4
104 19 225 42 11 2 90 18 175 35 85 17 166 33 180 36 122 22 679 145 860 189
58 14 114 28 125 30 11 2 119 29 240 59 121 31 227 57 235 59 15 4 130 34 325
86 61 16 205 57 320 90 191 56 252 73 295 85 8 2 53 15 100 30 47 14 123 37
170 51 208 61 774 247 1050 344 96 34 186 65 200 70 14 4 68 24 120 43 254 93
319 117 365 135 28 10 129 49 225 86 96 37 184 71 195 76 11 5 61 25 110 45
50 20 99 40 110 44 11 5 94 39 185 76 358 148 735 311 968 421 51 24 95 44 98
44 3 0 64 28 137 63 73 35 170 81 217 103 101 47 907 450 1034 518 130 69 549
298 676 369 103 57 226 128 240 137 8 6 22 13 30 17 8 4 47 26 85 48 39 23
183 109 320 190 138 82 252 152 253 157 2 4 7 8 12 8 8 0 250 148 400 245 36
23 96 61 135 86 113 71 681 450 795 530 167 116 514 362 525 371 6 5 48 37 95
70 192 139 355 262 358 270 2 4 10 8 17 8 7 0 15 4 17 8 2 5 48 42 103 83 55
40 102 76 105 80 3 3 55 43 115 90 61 46 117 89 125 96 99 81 373 301 400 321
42 32 223 183 230 191 3 4 30 26 60 51 59 48 382 321 390 330 3 3 79 71 170
150 91 79 172 151 180 160 8 8 58 53 110 99 52 47 120 108 150 137 30 29 81
76 114 105 32 30 77 72 101 94 23 22 109 103 190 180 169 159 722 711 895 891
151 158 473 501 512 547 11 12 38 43 61 68 89 97 192 212 209 232 10 12 29 33
42 47 12 14 56 63 97 110 40 47 78 90 84 96 14 16 87 101 200 234 53 63 107
126 119 140 227 264 841 1043 1058 1342 9 12 58 79 109 148 51 69 111 152 135
185 24 33 47 65 52 70 8 10 133 188 162 231 8 12 42 60 75 106 181 254 668
996 886 1353 157 255 380 631 437 735 20 36 53 93 74 128 21 34 38 65 38 67 0
3 11 22 23 43 13 20 43 73 67 117 24 44 76 139 115 210 72 130 134 246 252
470 70 132 413 820 480 961 64 136 125 267 186 399 101 220 117 255 117 260 0
3 16 40 36 82 58 125 208 479 316 743 54 135 103 254 108 265 10 20 56 140
147 380 25 66 60 158 78 205 133 344 406 1151 550 1625 20 66 40 131 45 145 5
14 28 90 50 170 23 80 53 183 67 230 13 47 26 92 28 100 2 8 25 92 50 185 26
94 48 177 50 185 2 8 11 42 20 75 29 104 96 369 101 395 3 14 7 32 10 40 3 8
8 26 10 38 3 13 21 87 40 165 19 78 39 160 43 182 5 22 19 84 31 139 12 54 23
107 25 117 2 11 6 23 9 27 2 4 7 27 11 52 4 25 9 48 11 52 3 4 7 20 9 35 5 34
17 98 45 223 11 52 30 142 41 200 12 58 22 110 23 115 2 6 6 28 10 50 4 22 14
72 21 110 15 77 20 100 30 160 4 22 13 72 20 110 8 39 34 192 59 340 46 280
49 294 67 410 6 39 12 79 14 90 1 11 6 36 9 55 3 19 8 53 10 75 3 22 16 119
30 215 14 96 28 195 31 220 2 25 7 61 10 80 2 19 7 58 10 85 3 28 10 84 15
125 6 41 12 95 15 120 3 25 7 65 10 90 3 25 8 65 10 90 3 25 7 68 10 95 3 28
8 66 10 85 7 59 14 141 20 223 4 43 8 87 10 98 2 10 7 56 10 102 4 45 8 98 10
117 2 19 7 76 10 125 4 50 8 104 10 120 1 17 6 75 9 130 4 55 9 123 11 150 2
28 6 102 10 165 3 63 8 142 10 175 4 62 13 241 20 405 27 636 27 1854 0 2420
-3 52 -7 147 -10 210 -3 63 -7 153 -10 200 -3 47 -7 130 -10 185 -3 55 -8 123
-10 150 -4 48 -9 117 -20 275 -3 41 -8 100 -10 130 -3 30 -7 87 -10 125 -6 68
-10 114 -20 213 -2 26 -7 74 -10 107 -11 130 -16 181 -20 215 -2 19 -7 60 -10
90 -3 30 -7 71 -10 90 -2 19 -7 60 -10 90 -3 30 -8 71 -10 90 -3 19 -7 53 -9
75 -7 61 -35 286 -41 325 -2 19 -7 60 -10 90 -3 30 -8 62 -10 70 -2 8 -7 39
-10 69 -4 30 -8 61 -10 70 -1 9 -6 41 -10 71 -4 30 -9 64 -11 75 -3 11 -6 36
-9 55 -2 19 -7 53 -11 75 -3 22 -8 54 -10 70 -2 17 -6 41 -9 55 -2 14 -6 41
-9 60 -11 73 -38 242 -72 435 -19 110 -37 216 -40 235 -3 19 -7 41 -10 49 -2
8 -7 30 -10 50 -8 55 -63 341 -74 386 -6 22 -12 54 -15 70 -5 31 -20 107 -37
185 -5 25 -12 59 -14 75 -3 17 -9 44 -14 60 -4 17 -12 48 -16 70 -11 60 -12
64 -24 114 -6 25 -12 55 -14 66 -3 11 -18 81 -36 155 -17 74 -33 146 -36 160
-18 87 -179 724 -229 905 -9 33 -18 67 -20 76 -7 31 -68 245 -142 499 -41 140
-76 260 -77 265 -2 6 -5 17 -8 25 -3 8 -16 49 -28 90 -78 266 -295 921 -423
1275 -107 298 -179 489 -280 750 -124 317 -342 845 -442 1070 -8 17 -64 143
-126 280 -61 138 -140 311 -176 385 -35 74 -78 166 -96 205 -42 92 -400 807
-477 955 -64 121 -152 284 -180 335 -9 17 -41 75 -70 130 -29 55 -56 105 -60
110 -4 6 -23 39 -43 75 -43 81 -193 346 -237 420 -18 30 -41 69 -51 87 -16 28
-117 200 -152 258 -7 11 -24 39 -39 63 -16 24 -28 45 -28 49 0 3 -13 24 -28
47 -15 22 -56 88 -91 146 -34 58 -90 149 -124 203 -34 53 -91 143 -126 200
-72 116 -551 839 -560 847 -3 3 -20 25 -36 50 -38 56 -223 320 -334 476 -113
159 -529 713 -671 894 -62 80 -127 163 -144 185 -17 22 -37 46 -44 53 -7 8
-25 30 -40 50 -15 21 -29 39 -32 42 -3 3 -35 41 -70 85 -89 111 -381 464 -415
501 -5 6 -30 35 -55 65 -55 65 -242 282 -250 289 -3 3 -35 39 -70 80 -36 41
-67 77 -70 80 -3 3 -41 46 -85 95 -96 108 -80 90 -191 211 -379 411 -515 553
-889 928 -340 341 -621 611 -894 861 -30 28 -65 59 -76 70 -12 11 -59 54 -105
95 -46 41 -109 98 -139 126 -81 73 -274 241 -451 393 -85 73 -166 143 -180
155 -14 12 -50 42 -80 66 -30 25 -66 55 -80 66 -536 453 -1594 1255 -2070
1569 -25 16 -47 32 -50 35 -8 10 -639 430 -646 430 -3 0 -16 8 -29 18 -39 30
-396 258 -445 285 -14 7 -114 68 -222 135 -109 67 -202 122 -208 122 -5 0 -10
5 -10 10 0 6 -4 10 -10 10 -5 0 -50 25 -100 55 -191 116 -724 416 -1070 603
-441 238 -1232 628 -1678 828 -81 36 -169 76 -197 89 -76 35 -283 126 -345
151 -30 12 -93 39 -140 59 -114 50 -281 118 -535 220 -192 76 -304 120 -560
218 -224 87 -822 298 -1000 354 -44 14 -87 29 -96 33 -9 5 -36 14 -60 21 -54
16 -51 14 -69 22 -8 3 -94 30 -190 61 -96 30 -220 69 -275 86 -55 17 -107 33
-115 35 -8 2 -62 17 -120 35 -112 34 -265 78 -290 84 -8 2 -78 22 -155 44 -77
22 -194 55 -260 72 -66 18 -158 43 -205 55 -135 37 -516 132 -620 155 -52 11
-108 24 -125 29 -16 5 -43 12 -60 15 -43 9 -52 11 -255 56 -102 23 -194 44
-205 46 -11 2 -31 6 -45 9 -41 9 -123 26 -150 31 -14 3 -33 7 -42 10 -10 3
-30 7 -45 10 -54 9 -129 24 -198 39 -65 14 -235 47 -415 80 -235 43 -659 113
-795 131 -27 4 -59 8 -70 10 -11 3 -69 11 -130 20 -60 8 -121 17 -135 19 -22
4 -76 11 -225 30 -77 10 -120 16 -145 20 -14 2 -50 7 -81 10 -31 3 -65 7 -76
9 -10 2 -48 7 -84 10 -36 4 -76 8 -90 11 -22 3 -60 7 -184 20 -53 6 -121 13
-170 19 -22 3 -69 7 -105 11 -79 7 -162 15 -215 20 -22 3 -71 7 -110 10 -38 3
-88 7 -110 10 -22 2 -76 7 -120 10 -44 3 -102 8 -130 10 -27 3 -86 7 -130 10
-44 3 -102 8 -130 10 -119 10 -272 18 -550 30 -49 2 -155 7 -235 10 -80 4
-190 9 -245 11 -112 5 -1592 13 -1597 9z"/>
</g>
</svg>
