<?xml version="1.0" standalone="no"?>
<!DOCTYPE svg PUBLIC "-//W3C//DTD SVG 20010904//EN"
 "http://www.w3.org/TR/2001/REC-SVG-20010904/DTD/svg10.dtd">
<svg version="1.0" xmlns="http://www.w3.org/2000/svg"
 width="1269.000000pt" height="1269.000000pt" viewBox="0 0 1269.000000 1269.000000"
 preserveAspectRatio="xMidYMid meet">
<metadata>
Created by potrace 1.11, written by Peter Selinger 2001-2013
</metadata>
<g transform="translate(0.000000,1269.000000) scale(0.100000,-0.100000)"
fill="#000000" stroke="none">
<path d="M9865 12675 c-280 -65 -484 -322 -483 -610 0 -139 34 -250 112 -364
l36 -53 -61 -117 c-65 -123 -126 -239 -229 -436 -35 -66 -84 -160 -110 -210
-26 -49 -75 -144 -110 -210 -34 -66 -86 -165 -115 -220 -29 -55 -85 -163 -125
-240 -40 -77 -89 -171 -110 -210 -41 -77 -166 -315 -187 -357 -12 -23 -18 -26
-37 -19 -36 14 -136 25 -205 23 -112 -4 -252 -52 -338 -118 -50 -38 -133 -124
-149 -155 -17 -34 -32 -39 -80 -29 -22 4 -61 11 -89 14 -27 3 -72 10 -100 15
-27 5 -74 12 -104 16 -30 4 -63 9 -75 11 -12 2 -41 7 -66 10 -25 3 -52 8 -62
9 -9 2 -38 7 -65 11 -26 3 -57 8 -68 10 -10 2 -37 6 -60 9 -22 4 -83 13 -135
21 -52 8 -140 21 -195 29 -55 8 -115 17 -132 20 -18 3 -50 7 -70 11 -21 3 -63
9 -93 14 -30 5 -75 12 -100 15 -25 3 -70 10 -100 15 -30 5 -71 12 -90 14 -19
3 -48 7 -65 10 -33 6 -210 33 -263 40 -19 2 -35 6 -36 8 -1 2 -11 23 -22 48
-81 187 -245 321 -449 366 -69 15 -219 12 -284 -5 -205 -57 -365 -208 -439
-413 -23 -64 -26 -89 -26 -200 l-1 -128 -35 -28 c-19 -16 -129 -100 -245 -187
-115 -88 -289 -219 -385 -292 -96 -73 -305 -232 -465 -353 -159 -121 -352
-267 -427 -325 l-138 -105 -37 15 c-139 53 -305 53 -452 1 -103 -38 -225 -133
-290 -229 -40 -59 -86 -160 -95 -207 -3 -19 -9 -46 -12 -60 -10 -48 -4 -175
12 -240 58 -234 237 -410 475 -466 55 -13 207 -13 257 0 l52 13 41 -46 c23
-25 56 -62 73 -81 18 -19 72 -82 121 -140 50 -58 93 -107 96 -110 3 -3 64 -72
134 -155 71 -82 132 -152 135 -155 6 -5 505 -581 545 -629 11 -13 25 -29 30
-35 6 -6 88 -101 184 -211 95 -110 199 -229 230 -265 31 -35 72 -82 91 -105
19 -22 37 -42 40 -45 3 -3 46 -52 95 -110 49 -58 102 -118 116 -135 66 -75
188 -215 231 -266 l48 -56 -19 -74 c-65 -254 36 -531 246 -675 276 -190 649
-134 856 127 20 26 40 55 43 65 4 11 12 26 19 34 36 46 72 200 70 300 -7 279
-196 522 -464 594 -110 30 -263 25 -373 -13 l-56 -19 -45 51 c-24 29 -228 264
-452 522 -410 473 -446 515 -591 681 -43 50 -178 205 -299 345 -121 140 -222
256 -225 259 -3 3 -61 70 -129 150 -68 80 -129 150 -135 155 -6 6 -63 71 -127
145 -64 74 -126 145 -137 158 l-20 23 23 54 c56 127 72 286 40 410 -9 33 -17
66 -18 74 -2 14 76 76 578 456 138 104 320 242 405 307 85 65 261 198 390 295
129 98 238 182 242 187 4 6 35 -4 80 -26 102 -51 169 -69 269 -73 113 -4 204
15 307 66 102 50 203 142 252 229 l35 61 45 -4 c25 -3 124 -17 220 -32 227
-34 218 -33 265 -40 22 -3 65 -9 95 -15 81 -13 131 -21 165 -25 17 -2 104 -16
195 -30 91 -14 181 -28 200 -30 19 -3 62 -10 95 -15 33 -5 123 -19 200 -30 77
-12 151 -23 165 -26 14 -2 43 -7 65 -10 22 -2 81 -11 130 -19 50 -8 103 -16
118 -17 22 -2 29 -10 42 -52 135 -410 625 -569 971 -315 158 116 255 308 255
502 0 83 -27 211 -55 264 -14 27 -12 32 38 128 30 55 86 163 126 240 40 77 80
154 90 170 9 17 59 111 110 210 51 99 110 212 130 250 20 39 77 147 126 240
48 94 105 202 125 240 21 39 69 131 108 205 38 74 95 182 125 240 31 58 70
132 87 166 l32 60 61 1 c224 2 405 99 526 280 207 309 95 737 -235 903 -130
66 -295 87 -430 55z m278 -368 c158 -93 190 -308 65 -436 -117 -120 -314 -112
-415 17 -108 135 -74 322 75 416 23 14 42 24 42 21 0 -3 8 -1 18 5 10 6 49 9
93 7 60 -3 86 -9 122 -30z m-4921 -2600 c20 -9 57 -35 81 -60 136 -135 99
-358 -73 -448 -36 -18 -61 -23 -120 -23 -93 0 -153 27 -209 91 -68 77 -86 168
-55 273 21 71 100 152 170 174 59 19 154 15 206 -7z m3170 -430 c130 -58 192
-208 143 -347 -53 -151 -236 -226 -380 -156 -176 86 -214 320 -73 452 86 82
199 100 310 51z m-5760 -1560 c56 -24 123 -91 149 -150 60 -139 2 -291 -138
-358 -59 -28 -73 -31 -132 -27 -252 18 -355 319 -166 486 75 66 197 87 287 49z
m2979 -3385 c211 -96 218 -397 13 -502 -66 -34 -189 -35 -249 -3 -52 28 -101
77 -128 127 -32 61 -31 184 2 248 33 65 77 105 147 133 70 29 148 27 215 -3z"/>
<path d="M6097 12094 c-1 -1 -65 -5 -142 -9 -77 -3 -153 -8 -170 -10 -16 -2
-66 -6 -110 -10 -44 -4 -87 -8 -95 -10 -9 -2 -43 -6 -75 -10 -64 -8 -108 -14
-140 -19 -11 -2 -40 -6 -65 -10 -204 -30 -593 -123 -825 -196 -71 -22 -137
-43 -145 -45 -62 -16 -389 -143 -404 -156 -6 -5 -16 -9 -24 -9 -20 0 -166 -68
-397 -185 -170 -87 -228 -119 -355 -195 -315 -189 -626 -417 -900 -659 -93
-82 -407 -393 -485 -481 -28 -31 -66 -74 -85 -95 -20 -22 -76 -89 -124 -149
-557 -688 -960 -1489 -1177 -2339 -22 -87 -42 -168 -45 -180 -5 -30 -10 -54
-23 -107 -5 -25 -13 -61 -16 -80 -3 -19 -10 -60 -16 -90 -6 -30 -12 -68 -14
-85 -3 -16 -7 -48 -10 -70 -4 -22 -8 -51 -10 -65 -2 -14 -6 -43 -9 -65 -3 -22
-8 -67 -12 -100 -3 -33 -7 -76 -9 -95 -16 -149 -20 -269 -19 -570 0 -311 6
-489 19 -560 2 -14 7 -56 11 -95 9 -98 36 -295 48 -360 2 -11 11 -60 21 -110
9 -49 25 -126 35 -170 10 -45 21 -92 24 -105 32 -156 88 -239 197 -295 185
-95 418 -7 490 184 33 90 31 143 -17 346 -2 11 -11 54 -19 95 -8 41 -17 86
-20 100 -6 30 -9 45 -29 170 -8 52 -18 120 -21 150 -3 30 -8 71 -11 90 -30
232 -36 861 -9 1033 2 12 6 54 10 92 3 39 10 97 15 130 5 33 12 80 15 105 8
60 51 287 71 375 8 39 17 78 19 87 44 208 203 677 305 903 286 631 621 1127
1083 1601 153 157 371 356 495 451 379 291 633 451 997 628 154 75 494 220
539 230 6 1 18 5 26 8 163 65 657 193 855 222 22 4 47 8 55 10 8 3 33 7 55 10
22 3 58 8 79 11 47 7 81 11 161 19 33 3 69 8 80 10 122 25 858 25 1005 1 14
-2 54 -7 90 -11 63 -6 83 -8 165 -20 58 -8 167 -25 190 -30 11 -2 45 -9 75
-15 30 -6 69 -13 85 -16 59 -10 309 -75 445 -115 139 -41 186 -45 277 -25 66
14 154 82 197 150 108 172 58 388 -114 493 -52 31 -383 130 -563 167 -12 3
-33 8 -47 11 -23 5 -125 26 -195 39 -16 4 -75 13 -130 21 -55 9 -107 17 -115
20 -8 2 -44 7 -80 10 -36 4 -72 8 -81 10 -8 2 -55 6 -105 10 -49 4 -97 9 -107
11 -54 10 -661 26 -670 18z"/>
<path d="M11655 8237 c-151 -50 -245 -171 -251 -322 -3 -61 2 -86 32 -171 48
-134 68 -196 94 -284 11 -41 25 -88 30 -105 9 -28 64 -296 74 -360 16 -101 36
-251 41 -320 4 -44 8 -91 10 -105 23 -157 23 -778 0 -970 -2 -19 -7 -66 -10
-105 -3 -38 -7 -81 -10 -95 -4 -25 -9 -68 -20 -165 -3 -27 -13 -88 -21 -135
-8 -47 -18 -101 -21 -120 -45 -305 -226 -924 -353 -1205 -10 -22 -30 -69 -45
-105 -15 -36 -66 -141 -113 -235 -605 -1196 -1585 -2017 -2939 -2464 -269 -89
-688 -184 -908 -207 -27 -3 -57 -7 -65 -9 -8 -2 -46 -7 -85 -11 -38 -3 -81 -8
-95 -10 -184 -23 -774 -23 -975 0 -16 2 -61 6 -100 10 -38 4 -81 9 -95 11 -14
2 -45 7 -70 10 -51 7 -61 9 -185 29 -273 47 -503 104 -810 203 -96 31 -302
107 -360 132 -11 5 -69 30 -130 56 -193 84 -353 164 -560 280 -254 142 -614
395 -855 600 -146 124 -450 429 -558 560 -166 199 -344 447 -419 583 -116 210
-200 277 -363 286 -43 2 -126 -18 -168 -40 -66 -36 -143 -121 -167 -186 -31
-82 -28 -197 7 -271 47 -99 212 -365 309 -497 63 -86 171 -227 191 -252 13
-14 32 -37 42 -50 162 -199 420 -464 641 -658 218 -191 519 -416 761 -567 164
-103 528 -308 604 -340 8 -3 57 -26 107 -49 51 -24 95 -44 98 -44 2 0 34 -14
70 -30 367 -168 981 -351 1423 -425 63 -10 87 -14 132 -20 52 -7 95 -14 130
-20 14 -2 54 -7 90 -10 36 -3 79 -8 95 -10 101 -13 293 -20 600 -20 310 0 431
4 583 20 108 12 208 24 242 30 14 2 48 7 75 10 70 9 308 53 385 71 36 9 76 18
90 20 41 8 279 72 370 99 47 14 90 27 95 29 41 10 316 105 340 116 11 5 81 34
155 64 118 47 182 76 365 161 337 159 827 471 1115 712 36 30 76 64 90 75 167
138 443 415 606 608 397 471 710 992 942 1570 90 224 208 579 247 740 2 8 19
80 39 160 19 80 42 181 50 225 8 44 17 89 20 100 2 11 7 40 11 65 4 25 9 54
11 65 2 11 6 31 8 45 3 14 8 45 12 70 4 25 8 56 9 70 2 14 5 48 9 75 3 28 8
66 11 85 6 51 14 127 19 190 3 30 9 93 13 140 16 177 8 888 -11 1050 -3 19 -7
64 -11 100 -3 36 -8 81 -10 100 -10 78 -16 117 -19 135 -2 11 -7 45 -12 75 -4
30 -8 57 -9 60 -1 3 -5 28 -9 55 -39 246 -175 720 -248 864 -32 63 -95 123
-162 156 -69 34 -184 44 -251 22z"/>
<path d="M10462 7466 c-53 -36 -87 -82 -103 -139 -13 -50 -9 -82 30 -227 27
-102 41 -164 57 -250 2 -14 7 -36 9 -50 8 -40 12 -62 19 -113 4 -27 9 -56 11
-65 3 -18 14 -113 20 -172 7 -64 18 -304 18 -380 0 -90 -13 -382 -18 -390 -1
-3 -6 -40 -10 -83 -3 -43 -8 -88 -10 -100 -2 -12 -6 -40 -9 -62 -4 -22 -8 -51
-11 -65 -2 -14 -6 -36 -9 -50 -45 -269 -163 -655 -282 -925 -10 -22 -18 -42
-19 -45 0 -3 -27 -59 -60 -125 -473 -958 -1275 -1690 -2262 -2066 -125 -47
-358 -120 -478 -149 -49 -12 -99 -24 -110 -26 -11 -3 -33 -7 -50 -10 -16 -3
-46 -9 -65 -14 -19 -5 -71 -14 -115 -20 -44 -7 -87 -13 -95 -15 -8 -2 -44 -6
-80 -10 -36 -3 -76 -8 -90 -10 -156 -22 -688 -23 -807 -1 -10 2 -48 7 -85 10
-37 4 -79 9 -93 11 -14 3 -51 9 -83 15 -31 5 -73 12 -92 15 -66 10 -255 56
-391 95 -667 190 -1296 561 -1803 1065 -119 117 -262 281 -355 405 -31 41 -59
77 -62 80 -3 3 -49 70 -101 150 -147 223 -276 462 -365 679 -19 47 -41 100
-49 116 -7 17 -43 119 -79 227 -70 213 -87 243 -159 277 -54 26 -110 31 -168
16 -65 -16 -112 -56 -144 -120 -23 -48 -26 -64 -21 -118 6 -73 107 -385 172
-532 7 -16 27 -64 45 -105 171 -395 428 -802 729 -1155 157 -184 496 -507 666
-633 6 -4 37 -28 70 -53 519 -391 1163 -684 1816 -823 177 -37 175 -37 354
-61 66 -9 134 -18 150 -20 180 -25 680 -25 915 0 75 8 204 25 229 30 12 2 42
6 66 9 23 3 62 10 86 15 24 5 60 13 79 16 19 3 109 24 200 46 541 133 1080
377 1530 693 77 54 237 173 250 186 3 3 46 39 95 80 50 41 169 153 266 250
211 211 244 248 394 440 257 328 490 734 645 1120 106 263 204 598 255 870 3
14 7 36 10 50 2 14 7 39 9 55 6 41 18 117 21 135 1 8 6 49 10 90 4 41 9 83 11
94 10 52 18 264 18 446 -1 224 -8 352 -29 525 -3 22 -8 58 -10 80 -14 113 -44
281 -71 394 -9 36 -17 73 -19 83 -16 78 -61 220 -81 250 -13 21 -48 51 -77 68
-45 27 -61 30 -121 29 -58 -2 -75 -7 -114 -33z"/>
</g>
</svg>
