<svg id="keyviz" width="100%" preserveAspectRatio="xMinYMin slice" viewBox="100 20 830 720" enable-background="new 0 0 1024 768">
	<defs>
		<style type="text/css">
		  <![CDATA[
		  .house path.shape {
			  fill:#D0D2D3;
		  }
		  .house.highlight path.shape {
			  <!--fill: #d3c8a5;-->
		  }
		  .house circle {
			  fill:#FFFFFF;
			  stroke:#808184;
			  stroke-width:3.9;
		  }
		  .house.highlight circle {
			  fill: yellow;
		  }
		  .house circle:hover {
			  fill:#00aeef;
		  }
		  .house line, .house path.line {
			  fill:none;
			  stroke:#808184;
			  stroke-width:4.596;
		  }
		  .house.highlight line, .house.highlight path.line {
			  stroke: green;
		  }

		  .ring path {
			  fill:none;
			  stroke:#00BAF0;
			  stroke-width:6.199;
			  stroke-linecap:round;
		  }

		  .tree line, .lantern line {
			  fill:none;
			  stroke:#808184;
			  stroke-width:4.677;
		  }
		  .lantern circle {
			  fill:#FFFFFF;
			  stroke:#404041;
		  }
		  .lantern.highlight circle {
			  fill: orange;
		  }
		   .lantern circle:hover {
			  fill: yellow;
		  }

		  .bus {
			  cursor: pointer;
		  }

		  .bus polygon.vehicle {
			  fill: #fc9b2d;
			  fill-org:#808184;
		  }
		  .bus circle.tire {
			  fill:#FFFFFF;
			  stroke:#808184;
			  stroke-width:4.563;
		  }
		  .bus circle.tire:hover {
			  fill:#6dcff4;
		  }
		  .bus polygon.window {
			  fill:#D0D2D3;
		  }

		  .inner .window circle {
			  fill:#FFFFFF;
			  stroke:#808184;
			  stroke-width:3.9;
		  }
		  .inner .window circle:hover {
			  fill:#cdeffb;
		  }
		  .inner .line path {
			  fill:none;
			  stroke:#00BAF0;
			  stroke-width:6.081;
			  stroke-linecap=round;
		  }
		  .inner .polyline polyline {
			  fill:none;
			  stroke:#808184;
			  stroke-width:4.677;
		  }
		  .inner .polyline circle {
			  fill:#FFFFFF;
			  stroke:#404041;
			  stroke-width:4.677;
		  }
		  .inner .polyline circle:hover {
			  fill:#cdeffb;
		  }
		  text.logo {
		  	font-family:'OstrichSansRounded';
		  	font-size: 50px;
		  	font-weight: normal;
 		  	stroke: black;
 		  	stroke-width: 1px;
		  }
		  ]]>
		</style>
	</defs>
	<g>

        <g class="houses">

            <g class="house house-1">
                <path class="shape" d="M837.363,371.384l-95.957-10.258c0,0,0.816,19.41-1.613,37.221c-3.793,27.741-9.195,40.155-9.195,40.155l88.988,26.003l55.996-39L837.363,371.384z"/>
            </g>

            <g class="house house-2">
                <path class="shape" d="M739.465,543.342l-45.838-29.918c0,0-3.57,6.252-15.392,19.236c-12.282,13.495-19.892,19.245-19.892,19.245l32.316,47.208l54.766-6.727L739.465,543.342z"/>
                <line x1="671.154" y1="553.158" x2="688.156" y2="575.215"/>
                <line x1="686.963" y1="540.797" x2="706.525" y2="560.617"/>
                <line x1="698.078" y1="526.837" x2="721.199" y2="542.359"/>
            </g>

            <g class="house house-3">
                <path class="shape" d="M717,682.086L652.418,558.18c0,0-14.465,11.07-34.42,20.902c-21.598,10.648-34.117,14.477-34.117,14.477l56.023,124.438L717,682.086z"/>
                <circle cx="685.468" cy="669.921" r="5.856"/>
                <circle cx="671.967" cy="643.565" r="5.856"/>
                <circle cx="658.465" cy="617.209" r="5.856"/>
                <circle cx="644.964" cy="590.854" r="5.856"/>
                <circle cx="650.769" cy="685.397" r="5.856"/>
                <circle cx="639.139" cy="658.164" r="5.856"/>
                <circle cx="627.509" cy="630.93" r="5.856"/>
                <circle cx="615.879" cy="603.697" r="5.855"/>
            </g>

            <g class="house house-4">
                <path class="shape" d="M483,601.088c-55-7-88.719-22.801-88.719-22.801l-20.723,71.014l58.021,13.777l-0.923,12.068l10.659,0.816l33.885,30.381l37.835-24.895l11.613,0.889l0.959-12.553l60.606,1.445l-8.554-73.707C577.66,597.523,536.65,607.916,483,601.088"/>
                <path class="line" d="M572.533,616.369c0,0-47.414,5.418-85.5,0.283"/>
                <path class="line" d="M572.527,634.41c0,0-48.184,4.656-86.307-1.336"/>
                <path class="line" d="M573.902,654.219c0,0-50.938,4.924-89.504-1.869"/>
                <path class="line" d="M476.934,614.648c-38.683-3.672-79.986-17.51-79.986-17.51"/>
                <path class="line" d="M475.601,631.053c-39.611-2.49-83.456-16.332-83.456-16.332"/>
                <path class="line" d="M473.307,651.234c-40.181-2.756-85.577-17.967-85.577-17.967"/>
            </g>

            <g class="house house-5">
                <path class="shape" d="M300.818,487.863l-76.344,58.883l7.485,51.215l42.004,9.988l75.724-58.924c0,0-14.258-15.035-27.31-30.82C307.449,500.148,300.818,487.863,300.818,487.863"/>
            </g>

            <g class="house house-6">
                <path class="shape" d="M273.426,416.485c-6.449-29.111-7.484-51.311-7.484-51.311L111,387.758l9.227,48l30.773-7l6,25.999l-55,13.001l12,43l173.106-49.413C287.106,461.345,279.434,443.601,273.426,416.485"/>
                <circle cx="121.838" cy="484.719" r="5.856"/>
                <circle cx="150.618" cy="477.743" r="5.856"/>
                <circle cx="179.398" cy="470.768" r="5.856"/>
                <circle cx="208.177" cy="463.792" r="5.856"/>
                <circle cx="236.957" cy="456.815" r="5.856"/>
                <circle cx="265.737" cy="449.839" r="5.856"/>
                <circle cx="135.608" cy="407.264" r="5.856"/>
                <circle cx="164.804" cy="402.313" r="5.856"/>
                <circle cx="194" cy="397.361" r="5.856"/>
                <circle cx="223.196" cy="392.411" r="5.856"/>
                <circle cx="252.392" cy="387.459" r="5.856"/>
                <circle cx="168.913" cy="437.579" r="5.856"/>
                <circle cx="197.969" cy="431.865" r="5.856"/>
                <circle cx="227.026" cy="426.151" r="5.856"/>
                <circle cx="256.083" cy="420.438" r="5.856"/>
            </g>

            <g class="house house-7">
                <path class="shape" d="M215.922,310.358l-7.852,40.365l57.696,5.443c0,0,2.683-23.058,6.164-38.949c5.066-23.131,10.07-37.131,10.07-37.131l-48.992-15.078l-32.66-10.196L150,266.088l35.996,36.999L215.922,310.358z"/>
                <line x1="236.432" y1="280.963" x2="213.232" y2="275.447"/>
                <line x1="231.282" y1="298.824" x2="208.083" y2="293.308"/>
            </g>

            <g class="house house-8">
                <path class="shape" d="M197.244,107.846L316,228.088c0,0,11.723-14.207,24-26c9.486-9.107,27.002-24,27.002-24l-105.795-128L197.244,107.846z"/>
                <line x1="343.147" y1="182.3" x2="304.036" y2="139.029"/>
                <line x1="287.576" y1="120.9" x2="248.464" y2="77.629"/>
                <line x1="332.401" y1="192.011" x2="293.289" y2="148.74"/>
                <line x1="276.829" y1="130.611" x2="237.717" y2="87.34"/>
                <line x1="321.389" y1="201.962" x2="282.277" y2="158.691"/>
                <line x1="265.817" y1="140.562" x2="226.705" y2="97.292"/>
             </g>

            <g class="house house-9">
                <path class="shape" d="M590.004,93.088l-36.426-35.549l-33.5-2.115l-37.539,27.769l4.074,50.334c0,0,17.395-2.439,45.391,0.561c22.203,2.379,43.312,7.118,43.312,7.118L590.004,93.088z"/>
                <circle cx="499.688" cy="92.629" r="5.672"/>
                <circle cx="534.4" cy="96.117" r="5.672"/>
                <circle cx="536.013" cy="72.451" r="5.672"/>
                <circle cx="566.947" cy="100.804" r="5.672"/>
                <circle cx="500.047" cy="117.094" r="5.672"/>
                <circle cx="532.007" cy="119.93" r="5.672"/>
                <circle cx="563.335" cy="123.985" r="5.672"/>
            </g>

            <g class="house house-10">
                <path class="shape" d="M697.107,231.834l91.859-89.643L726.1,83.506l-84.098,92.582c0,0,11.877,6.148,30.17,25.861C689.002,220.086,697.107,231.834,697.107,231.834"/>
                <line x1="691.322" y1="143.851" x2="730.743" y2="179.816"/>
                <line x1="706.683" y1="127.015" x2="746.104" y2="162.979"/>
                <line x1="675.962" y1="160.688" x2="715.383" y2="196.652"/>
                <line x1="722.043" y1="110.178" x2="761.464" y2="146.143"/>
            </g>

			<g class="house house-11">
				<path class="shape" d="M901.859,184.224l-72.535,29.908L814,182.086l-108.602,61.005c0,0,11.938,16.233,21.496,41.878c10.105,27.117,13.996,46.768,13.996,46.768L907,279.086l-12-35l25.184-8.903L901.859,184.224z"/>
				<circle cx="893.866" cy="217.974" r="5.856"/>
				<circle cx="865.845" cy="227.554" r="5.856"/>
				<circle cx="837.825" cy="237.135" r="5.856"/>
				<circle cx="809.804" cy="246.714" r="5.856"/>
				<circle cx="781.784" cy="256.294" r="5.856"/>
				<circle cx="880.353" cy="266.608" r="5.856"/>
				<circle cx="852.333" cy="276.187" r="5.856"/>
				<circle cx="824.312" cy="285.767" r="5.856"/>
				<circle cx="796.292" cy="295.347" r="5.856"/>
				<circle cx="752.807" cy="266.895" r="5.856"/>
				<circle cx="769.192" cy="304.895" r="5.856"/>
			</g>

		</g>
		<g class="ring">
			<path stroke-dasharray="18.991,12.792" d="M556.896,583.844C661.787,559.059,734.372,461.771,727.581,353.6"/>
			<path fill="none" stroke="#00BAF0" stroke-width="6.199" stroke-linecap="round" stroke-dasharray="18.991,12.792" d="M721.985,315.881c-24.784-104.893-122.071-177.477-230.243-170.686"/>
			<path fill="none" stroke="#00BAF0" stroke-width="6.199" stroke-linecap="round" stroke-dasharray="18.991,12.792" d="M454.022,150.789c-104.892,24.785-177.477,122.072-170.686,230.244"/>
			<path fill="none" stroke="#00BAF0" stroke-width="6.199" stroke-linecap="round" stroke-dasharray="18.991,12.792" d="M288.933,418.752c24.785,104.896,122.072,177.478,230.243,170.688"/>
			<path fill="none" stroke="#00BAF0" stroke-width="6.199" stroke-linecap="round" d="M525.553,588.945c3.137-0.285,6.281-0.641,9.434-1.062c3.153-0.422,6.28-0.906,9.383-1.455 M283.83,387.41c0.286,3.137,0.64,6.283,1.062,9.436c0.422,3.15,0.907,6.277,1.457,9.381 M485.366,145.686c-3.137,0.287-6.282,0.641-9.434,1.062c-3.152,0.422-6.28,0.909-9.383,1.456 M727.09,347.225c-0.287-3.139-0.642-6.285-1.063-9.436c-0.422-3.152-0.908-6.279-1.456-9.38"/>
		</g>

		<g class="bus">
			<polygon class="vehicle" points="757.744,284.016 742.451,286.655 753.977,403.686 762.857,402.811 784.638,394.798 785.313,401.652 791.017,401.091 779.513,284.279"/>
			<circle class="tire" cx="746.053" cy="308.194" r="7.605"/>
			<circle class="tire" cx="752.381" cy="380.093" r="7.605"/>
			<polygon class="window"  points="774.479,287.182 757.277,286.92 758.698,301.337 775.918,301.786"/>
			<polygon class="window" fill="#D0D2D3" points="776.343,306.107 759.142,305.846 760.562,320.263 777.781,320.711"/>
			<polygon class="window" fill="#D0D2D3" points="778.208,325.033 761.006,324.771 762.426,339.188 779.646,339.637"/>
			<polygon class="window" fill="#D0D2D3" points="780.07,343.958 762.869,343.696 764.289,358.113 781.508,358.562"/>
			<polygon class="window" fill="#D0D2D3" points="782.062,362.871 764.859,362.609 766.279,377.026 783.5,377.475"/>
			<polygon class="window" fill="#D0D2D3" points="783.851,381.804 766.649,381.542 768.069,395.959 784.689,389.546"/>
		</g>

		<g class="tree tree-1">
			<path fill="#00BAF0" d="M751.491,434.869c4.838-19.406,93.764-4.615,86.504,24.495C830.255,490.412,745.442,459.126,751.491,434.869"/>
			<line x1="733.824" y1="429.756" x2="788.986" y2="445.444"/>
		</g>

		<g class="tree tree-2">
			<path fill="#70D5F6" d="M746.184,504.44c-7.59,2.034-21.154-8.979-10.154-28.031c5.934-10.275,14.465-17.054,24.492-12.419c13.613,6.294,0.652,24.179,11.361,14.776c13.824-12.136,36.6,7.522,28.371,28.023c-10.537,26.249-42.25,17.177-41.178-0.68C759.99,490.906,761.211,500.415,746.184,504.44"/>
			<line x1="719.051" y1="467.612" x2="770.207" y2="493.537"/>
		</g>

		<g class="tree tree-3">
			<path fill="#70D5F6" d="M328,607.801c-1.772-10.051,10.953-28.256,30-18c13,7,15.395,18.162,6,29c-13,15-26,2.418-10.697,19.01c16.194,17.559-13.875,46.5-39.466,33.533c-32.766-16.602-17.44-56.604,5.54-53.195C338.944,621.053,331.508,627.697,328,607.801"/>
			<line x1="348" y1="606.221" x2="372.092" y2="569.455"/>
		</g>

		<g class="tree tree-4">
			<path fill="#00BAF0" d="M267.777,245.395c-13.777,24.691-65.775,0.109-53.025-26.512C230.035,186.979,283.923,216.455,267.777,245.395"/>
			<line x1="291.881" y1="258.861" x2="241.186" y2="232.048"/>
		</g>

		<g class="tree tree-5">
			<path fill="#BCEAFA" d="M454,99.088c-17.299,4.961-34.165-31.993-9.613-38.288C467.644,54.836,475.621,92.888,454,99.088"/>
			<line x1="463.111" y1="137.73" x2="449.115" y2="82.114"/>
		</g>

		<g class="lantern lantern-1">
			<line x1="306.889" y1="605.334" x2="354.703" y2="552.926"/>
			<circle stroke-width="4.069" cx="305.583" cy="606.617" r="5.437"/>
		</g>

		<g class="lantern lantern-2">
		   	<line x1="293.15" y1="577.365" x2="342.25" y2="540.838"/>
			<circle fill="#FFFFFF" stroke="#404041" stroke-width="4.069" cx="297.392" cy="574.349" r="5.437"/>
		</g>

		<g class="lantern lantern-3">
			<line x1="367.412" y1="112.723" x2="398.752" y2="160.752"/>
			<circle fill="#FFFFFF" stroke="#404041" stroke-width="3.781" cx="363.865" cy="107.284" r="5.053"/>
		</g>

		<g class="lantern lantern-4">
			<line x1="381.999" y1="90.508" x2="410.201" y2="155.16"/>
			<circle fill="#FFFFFF" stroke="#404041" stroke-width="4.069" cx="381.479" cy="87.22" r="9.029"/>
		</g>

		<g class="lantern lantern-5">
			<line x1="758.336" y1="193.156" x2="702.147" y2="236.465"/>
			<circle fill="#FFFFFF" stroke="#404041" stroke-width="4.677" cx="764.696" cy="188.253" r="6.25"/>
		</g>

		<g class="lantern lantern-6">
			<line x1="765.211" y1="223.69" x2="710.998" y2="252.088"/>
			<circle fill="#FFFFFF" stroke="#404041" stroke-width="4.069" cx="771.458" cy="220.56" r="5.436"/>
		</g>

		<g class="inner">

			<g class="window">
				<circle cx="333.807" cy="338.312" r="5.855"/>
			</g>

			<g class="window">
				<circle cx="694.193" cy="386.312" r="5.856"/>
			</g>

			<g class="window">
				<circle cx="499.807" cy="207.312" r="5.856"/>
			</g>

			<g class="cloud-1" opacity="0.68">
				<path fill="#BCEAFA" d="M622.291,536.417c23.406-21.635,26.951-100.248-22.566-100.337c-46.033-0.083-74.299,14.707-107.84,14.049c-33.545-0.66-27.932-35.364-59.852-64.931c-30.818-28.543-37.547-13.174-63.119-6.956c-42.771,10.398-42.842,64.416-15.027,75.232c27.812,10.816,26.525,34.122,38.533,60.951c23.799,53.167,64.56,25.903,108.207,14.309C529.727,521.003,584.453,571.391,622.291,536.417"/>
			</g>

			<g class="cloud-2" opacity="0.68">
				<path fill="#BCEAFA" d="M681.625,321.822c16.215-16.036,2.816-68.575-41.141-65.154c-40.863,3.18-56.838,33.518-86.738,35.437c-29.904,1.92-38.217-40.073-72.762-57.495c-33.351-16.82-81.048-12.991-102.433-7.059c-35.762,9.924-24.457,45.859,2.498,51.098c26.955,5.24,55.263,11.196,71.568,28.199c32.303,33.692,83.15,29.194,119.436,18.413C596.246,318.074,655.41,347.743,681.625,321.822"/>
			</g>

			<g class="cloud-3">
				<path fill="#70D5F6" d="M455.822,412.365c-51.932,7.751-91.986-52.248-73.044-81.51c27.46-42.417,103.978,45.169,119.238,1.271c10.001-28.773,25.285-43.028,48.406-26.809C573.543,321.535,561.721,396.562,455.822,412.365"/>
			</g>

			<g class="cloud-4">
				<path fill="#70D5F6" d="M443.276,498.543c12.48-21.176,46.11-18.072,51.175-2.561c7.342,22.488-47.067,24.523-35.592,43.01c7.522,12.114,8.206,21.875-4.507,25.508C441.64,568.133,417.826,541.729,443.276,498.543"/>
			</g>

			<g class="cloud-5">
				<path fill="#00BAF0" d="M378.512,243.575c-5.305-19.89,4.006-45.353,17.813-44.021c20.017,1.932,5.191,36.019,23.384,33.583c11.924-1.595,22.826,7.462,18.129,17.03C430.333,265.433,384.623,266.496,378.512,243.575"/>
			</g>

			<g class="cloud-6">
				<path fill="#70D5F6" d="M653.449,459.016c3.551,36.49-25.449,48.49-41.332,30.445c-10.789-12.262-16.789-28.227-17.354-49.83c-0.438-16.785,4.004-20.848,0.652-33.359c-3.875-14.459-26.385-17.826-17.256-27.445C596.305,359.719,648.408,407.205,653.449,459.016"/>
			</g>

			<g class="cloud-7">
				 <path fill="#00BAF0" d="M330.001,412.088c-34.765-13.869-62.912-4.879-61.849,10.428c1.848,26.572,44.562,4.512,63.129,53.801c19.688,52.266,72.654,23.352,66.47-4.297C392.368,447.961,364.766,425.957,330.001,412.088"/>
			</g>

			<g class="line line-1">
				<path stroke-dasharray="17.491,11.41" d="M701.893,318.418c-19.855,19.242-51.551,56.773-45.461,95.699"/>
				<path stroke-dasharray="16.621,10.54" d="M674.223,440.066c13.307,6.223,32.908,9.555,47.42,11.996"/>
				<path d="M726.836,452.949c3.156,0.543,5.93,1.055,8.162,1.555 M657.57,419.707c0.695,2.762,1.594,5.535,2.711,8.305c0.977,2.414,2.701,4.586,4.996,6.543M717,305.09c0,0-2.596,1.984-6.719,5.594"/>
			</g>

			<g class="line line-2">
				<path stroke-dasharray="19.248,13.167" d="M307.764,247.859c34.078,36.57,75.357,58.773,105.908,54.273"/>
				<path stroke-dasharray="18.387,12.306" d="M444.922,282.891c17.754-24.004,19.637-66.316,5.826-112.77"/>
				<path d="M448.924,164.246c-0.934-2.89-1.926-5.789-2.981-8.699 M420.1,300.742c3.103-0.906,6.068-2.129,8.871-3.683c2.699-1.496,5.22-3.235,7.566-5.199M293.002,230.508c1.975,2.547,3.992,5.039,6.041,7.488"/>
			</g>

			<g class="polyline line-3">
				<polyline points="625.91,470.506 576.91,469.506 492.91,558.506 473.91,499.506"/>
				<circle cx="629.5" cy="469.095" r="6.25"/>
				<circle cx="576.208" cy="470.373" r="6.25"/>
				<circle cx="474.5" cy="501.095" r="6.25"/>
				<circle cx="493.5" cy="557.095" r="6.25"/>
			</g>

			<g class="polyline line-4">
				<polyline points="644.554,288.387 559.121,256.273 544.307,188.538 630.382,150.746"/>
				<circle cx="644.492" cy="289.915" r="6.25"/>
				<circle cx="560.674" cy="254.339" r="6.25"/>
				<circle cx="544.591" cy="188.994" r="6.25"/>
				<circle cx="629.524" cy="150.255" r="6.25"/>
			</g>

		</g>

		<text class="logo" x="383" y="384">D&#8201;A&#8201;T&#8201;E&#8201;N&#8201;S&#8201;C&#8201;H&#8201;U&#8201;L&#8201;E</text>
	</g>
</svg>
