<?xml version="1.0" encoding="utf-8"?><!DOCTYPE svg PUBLIC "-//W3C//DTD SVG 1.1//EN" "http://www.w3.org/Graphics/SVG/1.1/DTD/svg11.dtd"><svg width="878" height="718" viewBox="0 0 878 718" xmlns="http://www.w3.org/2000/svg" xmlns:xlink="http://www.w3.org/1999/xlink"><svg width="110.21" height="120" viewBox="-47.59 -47.59 524.49 571.1" id="1" x="111.08"><path fill="none" stroke="#79797A" stroke-width="5.2" d="M274.297 38.549L416.004 9.951M163.686 468.078L9.133 299.821l89.643-64.647 37.588-97.514 137.462-99.935"/><circle fill="#FFF" stroke="#222223" stroke-width="5.2" cx="162.768" cy="466.368" r="6.948"/><circle fill="#FFF" stroke="#222223" stroke-width="5.2" cx="9.55" cy="300.302" r="6.948"/><circle fill="#FFF" stroke="#222223" stroke-width="5.2" cx="98.255" cy="234.883" r="6.948"/><circle fill="#FFF" stroke="#222223" stroke-width="5.2" cx="136.951" cy="138.587" r="6.948"/><circle fill="#FFF" stroke="#222223" stroke-width="5.2" cx="273.482" cy="39.372" r="6.948"/><circle fill="#FFF" stroke="#222223" stroke-width="5.2" cx="419.758" cy="9.55" r="6.948"/></svg><svg width="120" height="102.08" viewBox="-26.48 -26.48 317.73 270.28" id="10" x="218.66" y="360"><path fill="none" stroke="#00B9EE" stroke-width="6.76" stroke-linecap="round" stroke-dasharray="21.184,14.424" d="M54.254 207.876c111.312-29.476 191.41-73.698 205.07-115.673"/><path fill="none" stroke="#00B9EE" stroke-width="6.76" stroke-linecap="round" stroke-dasharray="21.006,14.246" d="M250.277 52.761C220.281 19.163 132.414.83 20.992 3.667"/><path fill="none" stroke="#00B9EE" stroke-width="6.76" stroke-linecap="round" d="M13.879 3.876c-3.484.115-6.977.251-10.496.407m257.601 80.911c.522-3.545.551-7.067.062-10.555-.488-3.46-1.474-6.811-2.931-10.05M29.984 213.947a954.253 954.253 0 0 0 10.297-2.49"/></svg><svg width="115.65" height="120" viewBox="-39.15 -39.15 452.83 469.85" id="11" x="221.29"><path fill="none" stroke="#00B9EE" stroke-width="6.76" stroke-linecap="round" stroke-dasharray="19.88,13.119" d="M371.138 388.161C355.557 329.898 279.567-10.311 3.38 3.807"/></svg><svg width="51.65" height="120" viewBox="-17.66 -17.66 91.21 211.92" id="12" y="120"><path fill="none" stroke="#00B9EE" stroke-width="6.76" stroke-linecap="round" stroke-dasharray="22.263,15.502" d="M35.258 23.638C18.783 45.736-2.517 83.115 4.899 121.615"/><path fill="none" stroke="#00B9EE" stroke-width="6.76" stroke-linecap="round" stroke-dasharray="17.046,10.286" d="M20.547 155.439c5.125 5.809 11.086 10.023 17.684 13.148"/><path fill="none" stroke="#00B9EE" stroke-width="6.76" stroke-linecap="round" d="M42.958 170.599a81.498 81.498 0 0 0 8.11 2.617M6.721 129.15a83.116 83.116 0 0 0 3.838 10.438 68.387 68.387 0 0 0 3.928 7.562M52.512 3.376s-3.014 2.938-7.549 8.18"/></svg><svg width="49.25" height="120" viewBox="-44.07 -44.07 217.07 528.9" id="13" x="51.65" y="120"><path fill="none" stroke="#00B9EE" stroke-width="6.76" stroke-linecap="round" stroke-dasharray="19.965,13.205" d="M67.681 3.38C13.127 40.035-67.986 203.524 125.544 437.367"/></svg><svg width="120" height="36.54" viewBox="-44.3 -44.3 531.64 161.89" id="14" x="100.9" y="120"><path fill="none" stroke="#00B9EE" stroke-width="6.76" stroke-linecap="round" stroke-dasharray="19.93,13.17" d="M439.65 69.909C400.506 36.748 232.18-31.108 3.38 24.593"/></svg><svg width="120" height="107.38" viewBox="-20.5 -20.5 245.98 220.11" id="15" x="336.94"><path fill="none" stroke="#00B9EE" stroke-width="6.76" stroke-linecap="round" stroke-dasharray="21.469,14.709" d="M20.33 123.496c39.07 39.555 84.951 59.215 121.789 49.988"/><path fill="none" stroke="#00B9EE" stroke-width="6.76" stroke-linecap="round" stroke-dasharray="21.319,14.558" d="M178.283 150.957c24.225-28.371 29.736-77.434 15.807-130.406"/><path fill="none" stroke="#00B9EE" stroke-width="6.76" stroke-linecap="round" d="M192.141 13.539a263.462 263.462 0 0 0-3.209-10.164m-39.784 167.957a68.48 68.48 0 0 0 18.643-10.32M3.383 104.531a263.46 263.46 0 0 0 6.922 8.203"/></svg><svg width="61.86" height="120" viewBox="-21.36 -21.36 132.12 256.27" id="16" x="336.94" y="107.38"><path fill="none" stroke="#00B9EE" stroke-width="6.76" stroke-linecap="round" stroke-dasharray="21.183,14.423" d="M27.43 200.921c30.031-15.869 51.668-44.087 57.203-77.265"/><path fill="none" stroke="#00B9EE" stroke-width="6.76" stroke-linecap="round" stroke-dasharray="21.061,14.301" d="M82.809 81.369C74.555 49.312 51.082 22.914 20.036 9.26"/><path fill="none" stroke="#00B9EE" stroke-width="6.76" stroke-linecap="round" d="M13.41 6.582A118.087 118.087 0 0 0 3.379 3.38m82.187 113.127a103.553 103.553 0 0 0-.176-21.084M4.238 210.175a118.395 118.395 0 0 0 10.055-3.316"/></svg><svg width="72.48" height="120" viewBox="-44.59 -44.59 323.17 535.08" id="17" y="240"><path fill="#DADADA" d="M108.692 0h14.883v445.417h-14.883zM136.207 54.371h14.882v391.168h-14.882zM163.688 123.547h14.882V445.66h-14.882zM191.415 80.308h14.883v365.473h-14.883zM219.107 53.125h14.882v392.777h-14.882zM0 54.37h14.882v391.168H0zM27.482 123.547h14.882V445.66H27.482zM55.208 80.308h14.883v365.473H55.208zM82.901 53.125h14.882v392.777H82.901z"/></svg><svg width="91.68" height="120" viewBox="-18.2 -18.2 166.85 218.4" id="18" x="72.48" y="240"><circle fill="none" stroke="#79797A" stroke-width="3.9" cx="104.227" cy="24.949" r="5.856"/><circle fill="none" stroke="#79797A" stroke-width="3.9" cx="122.057" cy="35.951" r="5.856"/><circle fill="none" stroke="#79797A" stroke-width="3.9" cx="59.208" cy="124.806" r="5.856"/><circle fill="none" stroke="#79797A" stroke-width="3.9" cx="119.839" cy="7.806" r="5.856"/><circle fill="none" stroke="#79797A" stroke-width="3.9" cx="122.643" cy="56.085" r="5.856"/><circle fill="none" stroke="#79797A" stroke-width="3.9" cx="59.793" cy="144.941" r="5.856"/><circle fill="none" stroke="#79797A" stroke-width="3.9" cx="88.613" cy="50.221" r="5.856"/><circle fill="none" stroke="#79797A" stroke-width="3.9" cx="7.807" cy="174.193" r="5.856"/><circle fill="none" stroke="#79797A" stroke-width="3.9" cx="76.707" cy="78.006" r="5.856"/><circle fill="none" stroke="#79797A" stroke-width="3.9" cx="76.707" cy="118.306" r="5.856"/><circle fill="none" stroke="#79797A" stroke-width="3.9" cx="55.906" cy="42.415" r="5.856"/></svg><svg width="102.35" height="83.89" viewBox="-10 -10 102.35 83.89" id="19" x="757.48" y="459.83"><circle fill="#FFF" stroke="#79797A" stroke-width="3.9" cx="56.126" cy="24.948" r="5.856"/><circle fill="#FFF" stroke="#79797A" stroke-width="3.9" cx="73.957" cy="35.95" r="5.856"/><circle fill="#FFF" stroke="#79797A" stroke-width="3.9" cx="71.739" cy="7.806" r="5.856"/><circle fill="#FFF" stroke="#79797A" stroke-width="3.9" cx="74.542" cy="56.085" r="5.856"/><circle fill="#FFF" stroke="#79797A" stroke-width="3.9" cx="40.514" cy="50.221" r="5.856"/><circle fill="#FFF" stroke="#79797A" stroke-width="3.9" cx="7.807" cy="42.415" r="5.856"/></svg><svg width="71.87" height="120" viewBox="-45.33 -45.33 325.74 543.92" id="2" x="266.08000000000004" y="240"><path fill="none" stroke="#79797A" stroke-width="5.2" d="M146.228 8.698L8.241 104.921l118.86 55.544-26.468 101.099 125.04 181.639"/><circle fill="#FFF" stroke="#222223" stroke-width="5.2" cx="144.479" cy="9.549" r="6.948"/><circle fill="#FFF" stroke="#222223" stroke-width="5.2" cx="9.549" cy="104.282" r="6.949"/><circle fill="#FFF" stroke="#222223" stroke-width="5.2" cx="126.507" cy="160.398" r="6.948"/><circle fill="#FFF" stroke="#222223" stroke-width="5.2" cx="101.651" cy="261.158" r="6.948"/><circle fill="#FFF" stroke="#222223" stroke-width="5.2" cx="225.539" cy="443.715" r="6.948"/></svg><svg width="90.89" height="120" viewBox="-15.47 -15.47 140.6 185.64" id="20" x="337.95000000000005" y="240"><circle fill="#FFF" stroke="#878787" stroke-width="3.9" cx="56.126" cy="43.149" r="5.856"/><circle fill="#FFF" stroke="#878787" stroke-width="3.9" cx="73.957" cy="54.151" r="5.856"/><circle fill="#FFF" stroke="#878787" stroke-width="3.9" cx="71.739" cy="26.006" r="5.856"/><circle fill="#FFF" stroke="#878787" stroke-width="3.9" cx="74.542" cy="74.286" r="5.856"/><circle fill="#FFF" stroke="#878787" stroke-width="3.9" cx="40.513" cy="68.421" r="5.856"/><circle fill="#FFF" stroke="#878787" stroke-width="3.9" cx="7.806" cy="60.615" r="5.856"/><circle fill="#FFF" stroke="#878787" stroke-width="3.9" cx="70.656" cy="119.606" r="5.856"/><circle fill="#FFF" stroke="#878787" stroke-width="3.9" cx="91.455" cy="109.207" r="5.856"/><circle fill="#FFF" stroke="#878787" stroke-width="3.9" cx="101.855" cy="146.894" r="5.856"/><circle fill="#FFF" stroke="#878787" stroke-width="3.9" cx="101.855" cy="7.806" r="5.856"/></svg><svg width="85.06" height="120" viewBox="-18.98 -18.98 161.46 227.78" id="21" x="456.94"><circle fill="#FFF" stroke="#878787" stroke-width="3.9" cx="7.806" cy="121.595" r="5.856"/><circle fill="#FFF" stroke="#878787" stroke-width="3.9" cx="60.661" cy="112.545" r="5.856"/><circle fill="#FFF" stroke="#878787" stroke-width="3.9" cx="84.772" cy="7.806" r="5.856"/><circle fill="#FFF" stroke="#878787" stroke-width="3.9" cx="61.515" cy="41.606" r="5.856"/><circle fill="#FFF" stroke="#878787" stroke-width="3.9" cx="101.406" cy="107.894" r="5.856"/><circle fill="#FFF" stroke="#878787" stroke-width="3.9" cx="26.475" cy="79.107" r="5.856"/><circle fill="#FFF" stroke="#878787" stroke-width="3.9" cx="60.215" cy="87.331" r="5.856"/><circle fill="#FFF" stroke="#878787" stroke-width="3.9" cx="115.693" cy="182.007" r="5.856"/><circle fill="#FFF" stroke="#878787" stroke-width="3.9" cx="89.596" cy="144.5" r="5.856"/><circle fill="#FFF" stroke="#878787" stroke-width="3.9" cx="43.061" cy="130.508" r="5.856"/><circle fill="#FFF" stroke="#878787" stroke-width="3.9" cx="45.554" cy="159.719" r="5.856"/><circle fill="#FFF" stroke="#878787" stroke-width="3.9" cx="33.192" cy="180.66" r="5.856"/></svg><svg width="98.66" height="120" viewBox="-15.47 -15.47 152.59 185.6" id="22" y="360"><circle fill="#FFF" stroke="#878787" stroke-width="3.9" cx="7.806" cy="87.793" r="5.856"/><circle fill="#FFF" stroke="#878787" stroke-width="3.9" cx="60.661" cy="78.744" r="5.856"/><circle fill="#FFF" stroke="#878787" stroke-width="3.9" cx="87.321" cy="69.47" r="5.856"/><circle fill="#FFF" stroke="#878787" stroke-width="3.9" cx="61.515" cy="7.806" r="5.856"/><circle fill="#FFF" stroke="#878787" stroke-width="3.9" cx="26.475" cy="45.306" r="5.856"/><circle fill="#FFF" stroke="#878787" stroke-width="3.9" cx="60.215" cy="53.531" r="5.856"/><circle fill="#FFF" stroke="#878787" stroke-width="3.9" cx="113.847" cy="90.979" r="5.857"/><circle fill="#FFF" stroke="#878787" stroke-width="3.9" cx="89.596" cy="110.7" r="5.856"/><circle fill="#FFF" stroke="#878787" stroke-width="3.9" cx="43.061" cy="96.708" r="5.856"/><circle fill="#FFF" stroke="#878787" stroke-width="3.9" cx="45.554" cy="125.918" r="5.856"/><circle fill="#FFF" stroke="#878787" stroke-width="3.9" cx="33.192" cy="146.859" r="5.856"/></svg><svg width="120" height="105.58" viewBox="-13.52 -13.52 162.26 142.76" id="23" x="98.66" y="360"><circle fill="#FFF" stroke="#878787" stroke-width="3.9" cx="56.126" cy="24.949" r="5.856"/><circle fill="#FFF" stroke="#878787" stroke-width="3.9" cx="73.957" cy="35.951" r="5.856"/><circle fill="#FFF" stroke="#878787" stroke-width="3.9" cx="71.739" cy="7.806" r="5.856"/><circle fill="#FFF" stroke="#878787" stroke-width="3.9" cx="74.542" cy="56.085" r="5.856"/><circle fill="#FFF" stroke="#878787" stroke-width="3.9" cx="40.513" cy="50.221" r="5.856"/><circle fill="#FFF" stroke="#878787" stroke-width="3.9" cx="7.806" cy="42.415" r="5.856"/><circle fill="#FFF" stroke="#878787" stroke-width="3.9" cx="115.706" cy="62.407" r="5.856"/><circle fill="#FFF" stroke="#878787" stroke-width="3.9" cx="113.106" cy="94.907" r="5.856"/><circle fill="#FFF" stroke="#878787" stroke-width="3.9" cx="127.406" cy="107.907" r="5.856"/></svg><svg width="83.83" height="120" viewBox="-20.28 -20.28 170.02 243.38" id="24" x="456.94" y="120"><circle fill="#FFF" stroke="#878787" stroke-width="3.9" cx="7.806" cy="146.328" r="5.856"/><circle fill="#FFF" stroke="#878787" stroke-width="3.9" cx="60.661" cy="137.278" r="5.856"/><circle fill="#FFF" stroke="#878787" stroke-width="3.9" cx="87.32" cy="128.004" r="5.856"/><circle fill="#FFF" stroke="#878787" stroke-width="3.9" cx="61.515" cy="66.34" r="5.856"/><circle fill="#FFF" stroke="#878787" stroke-width="3.9" cx="121.654" cy="195.006" r="5.856"/><circle fill="#FFF" stroke="#878787" stroke-width="3.9" cx="60.215" cy="112.064" r="5.856"/><circle fill="#FFF" stroke="#878787" stroke-width="3.9" cx="113.847" cy="149.513" r="5.856"/><circle fill="#FFF" stroke="#878787" stroke-width="3.9" cx="89.596" cy="169.233" r="5.856"/><circle fill="#FFF" stroke="#878787" stroke-width="3.9" cx="43.061" cy="155.241" r="5.856"/><circle fill="#FFF" stroke="#878787" stroke-width="3.9" cx="95.66" cy="7.806" r="5.856"/><circle fill="#FFF" stroke="#878787" stroke-width="3.9" cx="45.554" cy="184.452" r="5.856"/></svg><svg width="104.19" height="120" viewBox="-18.25 -18.25 190.18 219.03" id="25" x="542"><path fill="#7BCDEE" d="M114.026 157.702C78.722 202.151 6.029 182.05.695 144.046c-7.73-55.098 51.242-40.104 61.938-90.594C69.532 20.887 85.046 3.706 114.318.132c29.273-3.575 71.71 66.937-.292 157.57"/></svg><svg width="120" height="119.69" viewBox="-14.66 -14.66 175.95 175.49" id="26" y="480"><path fill="#7BCDEE" d="M3.574 104.297C-8.977 57.227 13.058-3.034 45.73.118c47.368 4.571 12.285 85.24 55.344 79.479 28.223-3.777 54.023 17.66 42.898 40.301-17.749 36.128-125.933 38.644-140.398-15.601"/></svg><svg width="111.08" height="120" viewBox="-21.04 -21.04 233.7 252.48" id="27"><path fill="#00B9EE" d="M162.021 151.92c-40.996 62.117-100.169 72.289-136.755 42.108-22.277-18.373-39.566-73.475-8.104-107.24C43.476 58.562 82.014 59.03 86.957 21.851c7.305-54.947 163.754-4.306 75.064 130.069"/></svg><svg width="79.02" height="120" viewBox="-21.26 -21.26 167.98 255.08" id="28" x="542" y="120"><path fill="#7BCDEE" d="M125.186 131.413c5.344 60.646-66.055 98.672-98.268 73.043C-19.773 167.3 85.684 91.073 36.471 67.725 4.208 52.42-11.068 32.982 9.064 8.588c20.138-24.395 105.221-.863 116.122 122.825"/></svg><svg width="75.07" height="120" viewBox="-36.47 -36.47 273.77 437.65" id="29" x="542" y="240"><path fill="#7BCDEE" d="M.158 130.97C2.904 27.063 133.643-30.405 184.178 16.587c73.258 68.117-123.803 187.184-43.467 232.023 52.658 29.387 75.195 64.082 35.627 103.586C136.773 391.7-5.436 342.856.158 130.97"/></svg><svg width="120" height="70.49" viewBox="-61.93 -61.93 743.16 436.56" id="3" x="100.9" y="156.54"><path fill="none" stroke="#878787" stroke-width="5.2" d="M610.772 7.896L484.885 304.389l-43.358-123.827-103.244 16.206-168.197-142.61M173.899 51.371L11.043 165.77"/><circle fill="#FFF" stroke="#3C3C3B" stroke-width="5.2" cx="9.549" cy="167.899" r="6.948"/><circle fill="#FFF" stroke="#3C3C3B" stroke-width="5.2" cx="609.751" cy="9.548" r="6.948"/><circle fill="#FFF" stroke="#3C3C3B" stroke-width="5.2" cx="485.65" cy="303.151" r="6.948"/><circle fill="#FFF" stroke="#3C3C3B" stroke-width="5.2" cx="441.535" cy="181.159" r="6.948"/><circle fill="#FFF" stroke="#3C3C3B" stroke-width="5.2" cx="338.792" cy="195.795" r="6.948"/><circle fill="#FFF" stroke="#3C3C3B" stroke-width="5.2" cx="169.565" cy="54.241" r="6.948"/></svg><svg width="111.29" height="120" viewBox="-24.85 -24.85 276.55 298.18" id="30" x="646.19"><path opacity=".68" fill="#C0E4F5" d="M11.118 237.877c40.989 38.608 93.028-41.763 115.583-26.172 133.483 92.266 109.982-87.099 63.8-169.095C141.53-44.33 55.858 21.127 74.295 68.265c16.041 41.027-111.857 123.761-63.177 169.612"/></svg><svg width="120" height="103.8" viewBox="-22.91 -22.91 274.91 237.79" id="31" x="120" y="480"><path fill="#7BCDEE" d="M22.23 60.98C73.402-8.098 150.496-10.657 193.452 14.82c74.073 43.926 21.034 160.238-53.117 135.203-74.151-25.039-57.727 45.594-96.887 41.797-39.16-3.793-63.577-73.66-21.218-130.84"/></svg><svg width="120" height="82.41" viewBox="-16.22 -16.22 194.6 133.64" id="32" x="338.65999999999997" y="360"><path fill="#00B9EE" d="M85.613 97.106c43.152 9.963 76.99.82 76.546-17.332-.724-29.543-52.923 2.746-83.508-51.555C46.219-29.354-10.516 13.993 1.693 45.21c10.623 27.165 40.769 41.934 83.92 51.896"/></svg><svg width="74.94" height="120" viewBox="-29.49 -29.49 221 353.91" id="33" x="646.19" y="120"><path fill="#7BCDEE" d="M124.912 261.383c-32.683 51.371-112.478 38.074-122.429-1.87-9.417-37.802 8.871-77.832 38.989-119.664 23.4-32.496 37.7-33.797 49.4-62.399C104.393 44.407 66.52 5.513 97.74.443c62.033-10.09 93.816 156.179 27.172 260.94"/></svg><svg width="108.42" height="120" viewBox="-20.12 -20.12 218.16 241.46" id="34" x="646.19" y="240"><path fill="#00B9EE" d="M85.689 71.817C77.53 48.984 95.664 13.606 57.356 2.692 11.165-10.467-4.796 25.76 1.211 86.108c2.523 25.343 22.083 96.978 81.178 112.324 57.926 15.043 114.819-33.412 89.223-85.976-25.959-53.311-77.763-17.806-85.923-40.639"/></svg><svg width="120" height="117.38" viewBox="-35.35 -35.35 424.16 414.88" id="35" y="599.69"><path opacity=".68" fill="#C0E4F5" d="M315.046 342.993c32.248-7.332 62.53-80.996 9.762-109.66-49.056-26.646-93.404-1.801-128.947-21.793-35.541-19.988-8.629-77.082-32.695-123.979-23.238-45.273-80.598-76.23-109.961-85.002C4.096-12.109-14.189 39.875 11.82 66.345c26.01 26.466 52.934 54.814 56.696 87.585 7.448 64.937 68.959 97.44 119.401 111.458 33.632 9.345 74.999 89.456 127.129 77.605"/></svg><svg width="107.52" height="120" viewBox="-12.51 -12.51 134.52 150.15" id="36" x="646.19" y="360"><path fill="#00B9EE" d="M13.668 37.211C35.837-.539 70.285-8.34 92.707 8.262c13.651 10.109 25.504 41.949 8.062 62.746-14.588 17.398-37.241 18.309-39 40.301-2.602 32.5-96.063 7.566-48.101-74.098"/></svg><svg width="120" height="100.55" viewBox="-20.08 -20.08 240.97 201.92" id="37" x="240" y="480"><path fill="#7BCDEE" d="M15.121 114.94C-22.395 66.985 16.773-3.794 57.746.16c59.402 5.73 33.521 72.888 87.508 65.663 35.388-4.737 58.793 3.243 55.188 34.668-3.602 31.424-108.821 112.24-185.321 14.449"/></svg><svg width="120" height="116.55" viewBox="-32.41 -32.41 388.96 377.79" id="38" x="120" y="599.69"><path opacity=".68" fill="#C0E4F5" d="M271.826 309.833c37.584-12.574 81.756-99.888 25.658-125.281-52.148-23.604-91.744-21.271-129.437-39.147-37.693-17.879-13.606-54.357-34.695-104.179-20.361-48.1-35.84-34.11-68.006-40.122C11.545-8.95-16.123 52.255 9.887 78.724c26.007 26.464 12.647 52.23 12.562 88.783-.174 72.428 59.965 62.34 115.367 71.481 36.94 6.097 73.254 91.174 134.01 70.845"/></svg><svg width="82.17" height="120" viewBox="-44.82 -44.82 368.3 537.88" id="4" x="542" y="360"><path fill="none" stroke="#878787" stroke-width="5.2" d="M10.4 13l69.79 241.89 72.435-8.962 74.321 73.472 39.293 111.236"/><circle fill="#FFF" stroke="#3C3C3B" stroke-width="5.2" cx="9.549" cy="9.55" r="6.948"/><circle fill="#FFF" stroke="#3C3C3B" stroke-width="5.2" cx="80.292" cy="253.439" r="6.948"/><circle fill="#FFF" stroke="#3C3C3B" stroke-width="5.2" cx="152.27" cy="246.407" r="6.948"/><circle fill="#FFF" stroke="#3C3C3B" stroke-width="5.2" cx="227.103" cy="318.312" r="6.948"/><circle fill="#FFF" stroke="#3C3C3B" stroke-width="5.2" cx="269.107" cy="438.681" r="6.948"/></svg><svg width="120" height="119.26" viewBox="-34.93 -34.93 419.16 416.56" id="5" x="757.48"><path fill="none" stroke="#878787" stroke-width="5.2" d="M52.489 8.381L8.386 112.221l54.286 48.787-6.691 104.294 283.321 71.399"/><circle fill="#FFF" stroke="#3C3C3B" stroke-width="5.2" cx="50.937" cy="9.549" r="6.948"/><circle fill="#FFF" stroke="#3C3C3B" stroke-width="5.2" cx="9.549" cy="111.345" r="6.948"/><circle fill="#FFF" stroke="#3C3C3B" stroke-width="5.2" cx="62.077" cy="161.055" r="6.948"/><circle fill="#FFF" stroke="#3C3C3B" stroke-width="5.2" cx="56.905" cy="264.707" r="6.948"/><circle fill="#FFF" stroke="#3C3C3B" stroke-width="5.2" cx="339.749" cy="337.149" r="6.949"/></svg><svg width="120" height="100.57" viewBox="-28.84 -28.84 346.08 290.05" id="6" x="757.48" y="119.26"><path fill="none" stroke="#878787" stroke-width="5.2" d="M8.388 200.977l92.4 22.614 60.271-32.13 104.262 7.144 14.438-183.82"/><circle fill="#FFF" stroke="#3C3C3B" stroke-width="5.2" cx="9.549" cy="202.534" r="6.948"/><circle fill="#FFF" stroke="#3C3C3B" stroke-width="5.2" cx="100.212" cy="222.821" r="6.948"/><circle fill="#FFF" stroke="#3C3C3B" stroke-width="5.2" cx="161.102" cy="192.056" r="6.948"/><circle fill="#FFF" stroke="#3C3C3B" stroke-width="5.2" cx="264.729" cy="197.68" r="6.948"/><circle fill="#FFF" stroke="#3C3C3B" stroke-width="5.2" cx="278.855" cy="9.549" r="6.948"/></svg><svg width="68.16" height="120" viewBox="-38.5 -38.5 262.39 461.98" id="7" x="757.48" y="219.82999999999998"><path fill="none" stroke="#878787" stroke-width="5.2" d="M7.614 375.263l102.258-47.657-7.697-72.58 74.758-73.029-8.531-172.081"/><circle fill="#FFF" stroke="#3C3C3B" stroke-width="5.2" cx="9.549" cy="375.434" r="6.948"/><circle fill="#FFF" stroke="#3C3C3B" stroke-width="5.2" cx="108.422" cy="327.48" r="6.948"/><circle fill="#FFF" stroke="#3C3C3B" stroke-width="5.2" cx="102.648" cy="255.39" r="6.948"/><circle fill="#FFF" stroke="#3C3C3B" stroke-width="5.2" cx="175.849" cy="181.823" r="6.948"/><circle fill="#FFF" stroke="#3C3C3B" stroke-width="5.2" cx="168.779" cy="9.549" r="6.948"/></svg><svg width="101.92" height="120" viewBox="-44.34 -44.34 451.88 532.04" id="8" x="164.16000000000003" y="240"><path fill="none" stroke="#878787" stroke-width="5.2" d="M10.4 11.701l31.902 167.053 130.206 16.096 6.07 104.331 175.051 134.111"/><circle fill="#FFF" stroke="#3C3C3B" stroke-width="5.2" cx="9.549" cy="9.55" r="6.948"/><circle fill="#FFF" stroke="#3C3C3B" stroke-width="5.2" cx="43.349" cy="177.742" r="6.948"/><circle fill="#FFF" stroke="#3C3C3B" stroke-width="5.2" cx="171.924" cy="194.969" r="6.948"/><circle fill="#FFF" stroke="#3C3C3B" stroke-width="5.2" cx="179.421" cy="298.478" r="6.948"/><circle fill="#FFF" stroke="#3C3C3B" stroke-width="5.2" cx="353.659" cy="433.816" r="6.949"/></svg><svg width="101.9" height="120" viewBox="-30.73 -30.73 313.1 368.71" id="9" x="757.48" y="339.83"><path fill="none" stroke="#878787" stroke-width="5.2" d="M244.031 9.314L153.917 77.19l22.619 69.395-57.941 86.975L16.9 293.355"/><circle fill="#FFF" stroke="#3C3C3B" stroke-width="5.2" cx="242.104" cy="9.55" r="6.949"/><circle fill="#FFF" stroke="#3C3C3B" stroke-width="5.2" cx="155.361" cy="77.014" r="6.949"/><circle fill="#FFF" stroke="#3C3C3B" stroke-width="5.2" cx="175.997" cy="146.328" r="6.949"/><circle fill="#FFF" stroke="#3C3C3B" stroke-width="5.2" cx="119.692" cy="233.507" r="6.948"/><circle fill="#FFF" stroke="#3C3C3B" stroke-width="5.2" cx="9.55" cy="297.706" r="6.948"/></svg></svg>